<svg width="73" height="27" viewBox="0 0 73 27" fill="none" xmlns="http://www.w3.org/2000/svg">
<path d="M13.1568 3.48097C12.3129 4.39296 10.9626 5.11227 9.61238 5.00951C9.4436 3.7764 10.1047 2.46622 10.8783 1.65699C11.7222 0.719315 13.199 0.0513796 14.3946 0C14.5352 1.28449 13.9867 2.54329 13.1568 3.48097ZM14.3805 5.25357C12.4254 5.15081 10.7517 6.26832 9.82336 6.26832C8.88099 6.26832 7.4604 5.30495 5.91322 5.33064C3.90189 5.35633 2.03121 6.39677 1.00445 8.05376C-1.10534 11.3677 0.455904 16.2745 2.49536 18.9719C3.494 20.3078 4.68954 21.7721 6.26485 21.7207C7.75577 21.6694 8.34651 20.8344 10.1469 20.8344C11.9613 20.8344 12.4817 21.7207 14.057 21.6951C15.6886 21.6694 16.7153 20.3592 17.714 19.0233C18.8532 17.5076 19.3174 16.0304 19.3455 15.9534C19.3174 15.9277 16.1949 14.8359 16.1668 11.5476C16.1387 8.79876 18.6282 7.48858 18.7407 7.41151C17.3342 5.51047 15.14 5.30495 14.3805 5.25357ZM25.6749 1.52854V21.5538H29.0787V14.7074H33.7905C38.0945 14.7074 41.1185 12.01 41.1185 8.10514C41.1185 4.20029 38.1508 1.52854 33.9031 1.52854H25.6749ZM29.0787 4.14891H33.0029C35.9566 4.14891 37.6444 5.58754 37.6444 8.11798C37.6444 10.6484 35.9566 12.0999 32.9888 12.0999H29.0787V4.14891ZM47.3354 21.7079C49.4733 21.7079 51.4565 20.7188 52.3567 19.1518H52.427V21.5538H55.5776V11.5861C55.5776 8.696 53.0459 6.83349 49.1498 6.83349C45.535 6.83349 42.8626 8.72169 42.7642 11.3164H45.8304C46.0836 10.0833 47.3354 9.27402 49.0513 9.27402C51.133 9.27402 52.3004 10.1603 52.3004 11.7916V12.8963L48.0527 13.1275C44.1004 13.3459 41.9624 14.823 41.9624 17.392C41.9624 19.9867 44.1707 21.7079 47.3354 21.7079ZM48.2496 19.3316C46.4352 19.3316 45.2818 18.5352 45.2818 17.3149C45.2818 16.0561 46.393 15.324 48.5169 15.2084L52.3004 14.99V16.1204C52.3004 17.9957 50.5563 19.3316 48.2496 19.3316ZM59.7831 27C63.1025 27 64.6638 25.844 66.0281 22.3373L72.0058 7.02617H68.5458L64.5372 18.8563H64.4668L60.4582 7.02617H56.8997L62.6665 21.6051L62.3571 22.4914C61.8366 23.9943 60.9927 24.5723 59.4877 24.5723C59.2205 24.5723 58.7001 24.5466 58.4891 24.5209V26.9229C58.686 26.9743 59.5299 27 59.7831 27Z" fill="white"/>
</svg>
