<svg width="12" height="14" viewBox="0 0 12 14" fill="none" xmlns="http://www.w3.org/2000/svg">
<path fill-rule="evenodd" clip-rule="evenodd" d="M2.46645 13.7105L10.7331 8.33412C11.0853 8.10502 11.2721 7.71099 11.257 7.31586C11.2721 6.92073 11.0853 6.5267 10.7331 6.2976L2.46645 0.921218C1.94135 0.579706 1.24738 0.733977 0.91642 1.26579C0.585461 1.79761 0.742844 2.50558 1.26794 2.84709L8.13903 7.31586L1.26794 11.7846C0.742844 12.1261 0.585461 12.8341 0.91642 13.3659C1.24738 13.8977 1.94135 14.052 2.46645 13.7105ZM9.79385 6.28309C9.79369 6.28314 9.79354 6.28319 9.79339 6.28324L2.20225 1.34617C1.90864 1.15521 1.52061 1.24147 1.33555 1.53883C1.27559 1.63518 1.2443 1.74186 1.23938 1.84857C1.24424 1.74172 1.27553 1.63487 1.33557 1.53839C1.52063 1.24103 1.90866 1.15477 2.20227 1.34573L9.79385 6.28309ZM8.59748 7.61402L1.53212 12.2091C1.34969 12.3278 1.24663 12.5256 1.23914 12.7297C1.24679 12.5258 1.34983 12.3282 1.53211 12.2097L8.59788 7.61429L8.59748 7.61402Z" fill="white"/>
</svg>
