<svg width="12" height="14" viewBox="0 0 12 14" fill="none" xmlns="http://www.w3.org/2000/svg">
<path fill-rule="evenodd" clip-rule="evenodd" d="M9.53355 13.7105L1.26695 8.33412C0.914683 8.10502 0.727907 7.71099 0.74304 7.31586C0.727907 6.92073 0.914683 6.5267 1.26695 6.2976L9.53355 0.921218C10.0586 0.579706 10.7526 0.733977 11.0836 1.26579C11.4145 1.79761 11.2572 2.50558 10.7321 2.84709L3.86097 7.31586L10.7321 11.7846C11.2572 12.1261 11.4145 12.8341 11.0836 13.3659C10.7526 13.8977 10.0586 14.052 9.53355 13.7105ZM2.20615 6.28309C2.20631 6.28314 2.20646 6.28319 2.20661 6.28324L9.79775 1.34617C10.0914 1.15521 10.4794 1.24147 10.6644 1.53883C10.7244 1.63518 10.7557 1.74186 10.7606 1.84857C10.7558 1.74172 10.7245 1.63487 10.6644 1.53839C10.4794 1.24103 10.0913 1.15477 9.79773 1.34573L2.20615 6.28309ZM3.40252 7.61402L10.4679 12.2091C10.6503 12.3278 10.7534 12.5256 10.7609 12.7297C10.7532 12.5258 10.6502 12.3282 10.4679 12.2097L3.40212 7.61429L3.40252 7.61402Z" fill="white"/>
</svg>
