<svg width="37" height="34" viewBox="0 0 37 34" fill="none" xmlns="http://www.w3.org/2000/svg">
<path fill-rule="evenodd" clip-rule="evenodd" d="M11.9922 8.3999C12.3745 7.12441 12.9144 5.9848 13.5678 5.03438C14.9154 3.07432 16.6759 2 18.4996 2C20.3233 2 22.0839 3.07432 23.4314 5.03438C24.0848 5.9848 24.6247 7.12441 25.007 8.3999H11.9922ZM9.523 10.3999C9.41556 11.1916 9.35962 12.0076 9.35962 12.84C9.35962 13.3923 9.80733 13.84 10.3596 13.84C10.9119 13.84 11.3596 13.3923 11.3596 12.84C11.3596 11.9986 11.4235 11.1821 11.5436 10.3999H25.4556C25.5757 11.1821 25.6396 11.9986 25.6396 12.84C25.6396 13.3923 26.0873 13.84 26.6396 13.84C27.1919 13.84 27.6396 13.3923 27.6396 12.84C27.6396 12.0076 27.5837 11.1916 27.4762 10.3999H29.7591L34.5017 31.5599H2.49739L7.23992 10.3999H9.523ZM9.91581 8.3999C10.3552 6.70997 11.0406 5.18004 11.9197 3.90133C13.5183 1.57616 15.8277 0 18.4996 0C21.1715 0 23.481 1.57616 25.0795 3.90133C25.9586 5.18004 26.644 6.70997 27.0834 8.3999H30.5598C31.0278 8.3999 31.4332 8.72451 31.5356 9.1812L36.7264 32.3412C36.8665 32.9662 36.3911 33.5599 35.7506 33.5599H1.24846C0.607966 33.5599 0.13259 32.9662 0.272667 32.3412L5.46345 9.1812C5.56581 8.72451 5.97122 8.3999 6.43924 8.3999H9.91581Z" fill="black"/>
</svg>
