<svg width="43" height="48" viewBox="0 0 43 48" fill="none" xmlns="http://www.w3.org/2000/svg">
<path d="M42.9841 19.7385C42.9524 20.1221 42.9206 20.5056 42.873 20.8892C42.5714 23.2738 41.6349 25.3416 40.0634 27.0759C39.7459 27.4261 39.6983 27.6929 39.7935 28.1432C40.6666 32.062 39.7459 35.4806 37.1267 38.3989C35.4917 40.2332 33.444 41.3005 31.063 41.6507C29.0153 41.9508 27.031 41.7174 25.1421 40.7502C24.9198 40.6334 24.7294 40.5 24.4912 40.3499C24.4754 40.45 24.4754 40.5334 24.4754 40.6168C24.4754 42.6512 24.4595 44.6857 24.4912 46.7201C24.5071 47.5372 23.8246 47.9708 23.3007 47.9875C22.1102 48.0042 20.9197 48.0042 19.745 47.9875C19.1894 47.9708 18.5386 47.5206 18.5545 46.7035C18.5704 44.6857 18.5545 42.6679 18.5545 40.6334C18.5545 40.55 18.5545 40.4833 18.5545 40.3666C18.491 40.4 18.4434 40.4 18.4116 40.4166C17.4275 41.1004 16.3163 41.4172 15.1734 41.6173C14.2845 41.7674 13.4114 41.8007 12.5225 41.7174C10.4271 41.5173 8.56992 40.7502 6.93493 39.3661C4.82373 37.5817 3.53795 35.2638 3.06174 32.4622C2.80776 30.9281 2.88713 29.3939 3.29985 27.893C3.36334 27.6429 3.3316 27.4762 3.14111 27.2927C1.52199 25.6251 0.506076 23.624 0.140981 21.2727C-0.668578 16.1032 2.07757 11.1338 6.60158 9.19937C7.88735 8.64907 9.22074 8.39893 10.6176 8.39893C10.7446 8.39893 10.8557 8.38225 10.9827 8.39893C11.1891 8.43228 11.2685 8.33222 11.3319 8.13211C12.6177 3.86308 15.3162 1.14491 19.491 0.22774C24.6659 -0.90622 29.8248 2.29555 31.4916 7.58181C31.5551 7.78192 31.6185 7.99871 31.6662 8.21549C31.6979 8.36558 31.7773 8.4156 31.9201 8.4156C32.8091 8.39893 33.698 8.44896 34.5711 8.64907C38.5871 9.49954 41.8253 12.8514 42.7143 17.0704C42.8413 17.6707 42.873 18.2877 42.9524 18.9047C42.9683 18.9881 42.9841 19.0882 43 19.1716C42.9841 19.3383 42.9841 19.5384 42.9841 19.7385ZM24.4912 37.4317C24.5389 37.4817 24.5706 37.515 24.6182 37.5484C25.9993 38.649 27.539 39.2493 29.2692 39.2994C30.7137 39.3494 32.0789 39.0159 33.3488 38.2988C36.7775 36.3811 38.5554 32.112 37.3172 28.1932C37.2378 27.9431 37.1585 27.6929 37.1108 27.4428C37.0632 27.2093 36.968 26.9425 37.0315 26.7591C37.1108 26.559 37.3648 26.4422 37.5394 26.2922C40.2538 23.9909 41.3174 21.0226 40.5554 17.4706C39.6189 13.0181 35.4124 10.0832 30.9677 10.9837C30.6185 11.0504 30.2693 11.1171 29.9201 11.1838C29.9042 11.1504 29.8883 11.1338 29.8883 11.1338C29.8566 10.9337 29.8248 10.7336 29.8089 10.5168C29.682 9.3161 29.428 8.13211 28.8565 7.06486C27.3803 4.27998 25.1262 2.71245 22.1102 2.44563C20.6181 2.31223 19.1894 2.64574 17.856 3.37948C15.4115 4.76358 13.9352 6.88142 13.4749 9.76635C13.3955 10.2333 13.3479 10.7002 13.2844 11.1671C13.2368 11.1671 13.205 11.1671 13.1733 11.1504C12.6495 11.0671 12.1256 10.967 11.6018 10.8836C10.3478 10.7002 9.1255 10.8336 7.9191 11.2672C4.538 12.5012 2.23631 15.9364 2.39505 19.7052C2.47442 21.773 3.15699 23.5907 4.45863 25.1248C4.91897 25.6585 5.45867 26.0921 5.98251 26.5757C6.07775 26.659 6.1095 26.7424 6.06187 26.8591C5.96663 27.0926 5.88726 27.3427 5.8079 27.5929C5.25232 29.1938 5.12533 30.8113 5.47455 32.4789C6.3476 36.6979 10.0621 39.5495 14.0146 39.2493C15.6178 39.1326 17.0624 38.5489 18.3481 37.5317C18.3957 37.4984 18.4434 37.4483 18.491 37.3983C17.9672 37.2149 17.4592 37.0648 16.9671 36.8647C15.1099 36.0976 13.6336 34.8302 12.6971 32.9458C11.9193 31.395 11.6494 29.7107 11.6494 27.9764C11.6494 27.1927 12.1574 26.6924 12.9034 26.6924C14.3638 26.7091 15.7766 27.0092 17.1259 27.5929C18.9196 28.36 20.3958 29.5106 21.4118 31.2616C21.4435 31.3116 21.4752 31.345 21.5229 31.395C21.5705 31.3283 21.6022 31.2616 21.634 31.2116C22.2213 30.2277 22.9674 29.3939 23.8722 28.7268C25.7611 27.3594 27.8724 26.7257 30.1423 26.6924C30.8249 26.6757 31.3328 27.2093 31.3169 27.9264C31.3011 28.5101 31.2693 29.1104 31.2058 29.694C31.0788 30.8113 30.7931 31.8786 30.301 32.8791C29.3169 34.8969 27.7454 36.1976 25.7294 36.9647C25.3643 37.1648 24.9357 37.2816 24.4912 37.4317Z" fill="black"/>
</svg>
