<svg width="27" height="27" viewBox="0 0 27 27" fill="none" xmlns="http://www.w3.org/2000/svg">
<path d="M25.8762 13.1881C25.8762 20.1956 20.1956 25.8762 13.1881 25.8762C6.18066 25.8762 0.5 20.1956 0.5 13.1881C0.5 6.18066 6.18066 0.5 13.1881 0.5C20.1956 0.5 25.8762 6.18066 25.8762 13.1881Z" fill="white" stroke="black"/>
<mask id="path-2-inside-1" fill="white">
<path fill-rule="evenodd" clip-rule="evenodd" d="M13.1881 25.3762C19.9194 25.3762 25.3762 19.9194 25.3762 13.1881C25.3762 6.45681 19.9194 1 13.1881 1C6.4568 1 1 6.45681 1 13.1881C1 19.9194 6.4568 25.3762 13.1881 25.3762ZM13.1881 26.3762C20.4717 26.3762 26.3762 20.4717 26.3762 13.1881C26.3762 5.90452 20.4717 0 13.1881 0C5.90452 0 0 5.90452 0 13.1881C0 20.4717 5.90452 26.3762 13.1881 26.3762Z"/>
</mask>
<path fill-rule="evenodd" clip-rule="evenodd" d="M13.1881 25.3762C19.9194 25.3762 25.3762 19.9194 25.3762 13.1881C25.3762 6.45681 19.9194 1 13.1881 1C6.4568 1 1 6.45681 1 13.1881C1 19.9194 6.4568 25.3762 13.1881 25.3762ZM13.1881 26.3762C20.4717 26.3762 26.3762 20.4717 26.3762 13.1881C26.3762 5.90452 20.4717 0 13.1881 0C5.90452 0 0 5.90452 0 13.1881C0 20.4717 5.90452 26.3762 13.1881 26.3762Z" fill="white"/>
<path d="M24.3762 13.1881C24.3762 19.3671 19.3671 24.3762 13.1881 24.3762V26.3762C20.4717 26.3762 26.3762 20.4717 26.3762 13.1881H24.3762ZM13.1881 2C19.3671 2 24.3762 7.00909 24.3762 13.1881H26.3762C26.3762 5.90452 20.4717 0 13.1881 0V2ZM2 13.1881C2 7.00909 7.00909 2 13.1881 2V0C5.90452 0 0 5.90452 0 13.1881H2ZM13.1881 24.3762C7.00909 24.3762 2 19.3671 2 13.1881H0C0 20.4717 5.90452 26.3762 13.1881 26.3762V24.3762ZM25.3762 13.1881C25.3762 19.9194 19.9194 25.3762 13.1881 25.3762V27.3762C21.024 27.3762 27.3762 21.024 27.3762 13.1881H25.3762ZM13.1881 1C19.9194 1 25.3762 6.45681 25.3762 13.1881H27.3762C27.3762 5.35224 21.024 -1 13.1881 -1V1ZM1 13.1881C1 6.45681 6.4568 1 13.1881 1V-1C5.35223 -1 -1 5.35224 -1 13.1881H1ZM13.1881 25.3762C6.4568 25.3762 1 19.9194 1 13.1881H-1C-1 21.024 5.35223 27.3762 13.1881 27.3762V25.3762Z" fill="black" mask="url(#path-2-inside-1)"/>
<mask id="path-4-inside-2" fill="white">
<path fill-rule="evenodd" clip-rule="evenodd" d="M12.3352 23.4696C12.3091 23.7445 12.0651 23.9463 11.7902 23.9202C10.6287 23.8102 9.49268 23.3374 8.56576 22.4936C8.36156 22.3077 8.34673 21.9914 8.53264 21.7872C8.71854 21.583 9.03478 21.5682 9.23897 21.7541C9.99991 22.4469 10.9307 22.8343 11.8845 22.9247C12.1595 22.9507 12.3612 23.1947 12.3352 23.4696Z"/>
</mask>
<path fill-rule="evenodd" clip-rule="evenodd" d="M12.3352 23.4696C12.3091 23.7445 12.0651 23.9463 11.7902 23.9202C10.6287 23.8102 9.49268 23.3374 8.56576 22.4936C8.36156 22.3077 8.34673 21.9914 8.53264 21.7872C8.71854 21.583 9.03478 21.5682 9.23897 21.7541C9.99991 22.4469 10.9307 22.8343 11.8845 22.9247C12.1595 22.9507 12.3612 23.1947 12.3352 23.4696Z" fill="white"/>
<path d="M11.7902 23.9202L11.8845 22.9247L11.8845 22.9247L11.7902 23.9202ZM12.3352 23.4696L11.3396 23.3753L11.3396 23.3753L12.3352 23.4696ZM11.8845 22.9247L11.7902 23.9202L11.7902 23.9202L11.8845 22.9247ZM11.6959 24.9158C12.5207 24.9939 13.2526 24.3886 13.3307 23.5639L11.3396 23.3753C11.3657 23.1004 11.6096 22.8986 11.8845 22.9247L11.6959 24.9158ZM7.89254 23.233C8.98546 24.228 10.3268 24.7861 11.6959 24.9158L11.8845 22.9247C10.9306 22.8343 9.99989 22.4469 9.23897 21.7541L7.89254 23.233ZM7.79318 21.114C7.23547 21.7266 7.27996 22.6753 7.89254 23.233L9.23897 21.7541C9.44317 21.94 9.458 22.2562 9.27209 22.4604L7.79318 21.114ZM9.91219 21.0147C9.2996 20.457 8.35089 20.5015 7.79318 21.114L9.27209 22.4604C9.08619 22.6646 8.76995 22.6795 8.56576 22.4936L9.91219 21.0147ZM11.9789 21.9291C11.2326 21.8585 10.5072 21.5563 9.91219 21.0147L8.56576 22.4936C9.49265 23.3374 10.6287 23.8102 11.7902 23.9202L11.9789 21.9291ZM13.3307 23.5639C13.4088 22.7392 12.8036 22.0073 11.9789 21.9291L11.7902 23.9202C11.5153 23.8942 11.3136 23.6502 11.3396 23.3753L13.3307 23.5639Z" fill="black" mask="url(#path-4-inside-2)"/>
<path fill-rule="evenodd" clip-rule="evenodd" d="M10.7206 3.45515L12.7952 3.978L12.7001 4.9621C12.1451 4.99224 11.5343 5.2408 10.8936 5.67114C10.2567 6.09893 9.62274 6.68453 9.02834 7.33801C7.83832 8.64633 6.85292 10.1757 6.36461 11.1038L5.44333 10.7269L6.08994 8.57806L6.09891 8.55607C6.82946 6.76481 7.6584 5.64019 8.46506 4.89161C9.22209 4.1891 9.94125 3.83712 10.4587 3.58384C10.4919 3.5676 10.5242 3.55178 10.5557 3.53629L10.7206 3.45515ZM8.07181 6.9081C8.14328 6.82647 8.21556 6.74543 8.28858 6.66514C8.91611 5.97523 9.61057 5.32831 10.3361 4.84101C10.5071 4.72611 10.6818 4.61882 10.8594 4.52141L10.8322 4.51455C10.3371 4.75788 9.76048 5.05373 9.14529 5.62462C8.7991 5.94588 8.43538 6.35987 8.07181 6.9081Z" fill="black"/>
</svg>
