<svg width="374" height="368" viewBox="0 0 374 368" fill="none" xmlns="http://www.w3.org/2000/svg">
<path d="M125.471 136.084H248.529C255.442 136.084 261.297 141.181 262.248 148.028L278.524 265.228C279.68 273.555 273.212 280.984 264.806 280.984H109.194C100.788 280.984 94.3197 273.555 95.4761 265.228L111.752 148.028C112.703 141.181 118.558 136.084 125.471 136.084Z" fill="white" stroke="white" stroke-width="2.3"/>
<path d="M164.009 110.234C157.481 122.291 153.219 139.245 153.054 158.315H141.252C141.417 137.65 146.009 118.688 153.632 104.61C161.273 90.4997 172.806 79.9615 187.001 79.9615C201.196 79.9615 212.729 90.4997 220.369 104.61C227.992 118.688 232.585 137.65 232.749 158.315H220.947C220.782 139.245 216.521 122.291 209.992 110.234C203.204 97.6969 194.809 91.7682 187.001 91.7682C179.192 91.7682 170.797 97.6969 164.009 110.234Z" fill="white" stroke="white" stroke-width="2.3"/>
<path d="M160.39 215.768V204.728H181.236V183.875H192.763V204.728H213.609V215.768H192.763V236.622H181.236V215.768H160.39Z" fill="black"/>
</svg>
