<svg width="216" height="229" viewBox="0 0 216 229" fill="none" xmlns="http://www.w3.org/2000/svg">
<path d="M21.9832 75.7292C23.0163 68.3166 29.3554 62.7998 36.8396 62.7998H179.16C186.644 62.7998 192.984 68.3166 194.017 75.7292L212.916 211.329C214.173 220.35 207.167 228.4 198.059 228.4H17.9404C8.8328 228.4 1.82682 220.35 3.08404 211.329L21.9832 75.7292Z" fill="white"/>
<path fill-rule="evenodd" clip-rule="evenodd" d="M81.5925 34.4763C73.9931 47.6532 69.0677 66.3251 69.0677 87.3316H54.9661C54.9661 64.3026 60.3344 43.1078 69.3779 27.4269C78.3134 11.9331 91.7144 0.544922 108 0.544922C124.287 0.544922 137.688 11.9331 146.623 27.4269C155.667 43.1078 161.035 64.3026 161.035 87.3316H146.933C146.933 66.3251 142.008 47.6532 134.408 34.4763C126.701 21.1124 117.11 14.6516 108 14.6516C98.8905 14.6516 89.2997 21.1124 81.5925 34.4763Z" fill="white"/>
<path d="M81.3904 149.768V138.728H102.236V117.875H113.763V138.728H134.609V149.768H113.763V170.622H102.236V149.768H81.3904Z" fill="black"/>
</svg>
