<svg width="27" height="39" viewBox="0 0 27 39" fill="none" xmlns="http://www.w3.org/2000/svg">
<path d="M26.5 24.5926C26.5 31.7205 20.6828 37.5044 13.5 37.5044C6.3172 37.5044 0.5 31.7205 0.5 24.5926C0.5 18.2569 3.79774 12.2174 7.15072 7.72429C8.82166 5.48516 10.4935 3.64707 11.7475 2.36902C12.3743 1.73027 12.8959 1.23213 13.2599 0.894502C13.3499 0.811105 13.4301 0.737513 13.5 0.674027C13.5699 0.737513 13.6501 0.811105 13.7401 0.894502C14.1041 1.23213 14.6257 1.73027 15.2525 2.36902C16.5065 3.64707 18.1783 5.48516 19.8493 7.72429C23.2023 12.2174 26.5 18.2569 26.5 24.5926Z" fill="white" stroke="black"/>
</svg>
