<svg width="49" height="49" viewBox="0 0 49 49" fill="none" xmlns="http://www.w3.org/2000/svg">
<path fill-rule="evenodd" clip-rule="evenodd" d="M3.81735 10.4222L3.77764 10.3853L3.81735 10.3483C4.08796 10.0969 4.48897 9.73591 5.00648 9.30193C6.04195 8.43361 7.54143 7.27496 9.39395 6.11657C13.1067 3.79496 18.1966 1.5 23.7906 1.5C29.3846 1.5 34.4745 3.79496 38.1873 6.11657C40.0398 7.27496 41.5393 8.43361 42.5747 9.30193C43.0923 9.73591 43.4933 10.0969 43.7639 10.3483L43.8036 10.3853L43.7639 10.4222C43.4933 10.6737 43.0923 11.0346 42.5747 11.4686C41.5393 12.3369 40.0398 13.4956 38.1873 14.6539C34.4745 16.9756 29.3846 19.2705 23.7906 19.2705C18.1966 19.2705 13.1067 16.9756 9.39395 14.6539C7.54143 13.4956 6.04195 12.3369 5.00648 11.4686C4.48897 11.0346 4.08796 10.6737 3.81735 10.4222ZM44.8806 10.0333C44.8808 10.0335 44.881 10.0336 44.5255 10.3853C44.881 10.7369 44.8808 10.737 44.8806 10.7372L44.8801 10.7377L44.8784 10.7394L44.8725 10.7454L44.8505 10.7673C44.8314 10.7862 44.8034 10.8138 44.7667 10.8494C44.6934 10.9205 44.5855 11.0239 44.4445 11.1548C44.1627 11.4167 43.749 11.7889 43.2173 12.2348C42.1543 13.1262 40.6172 14.3139 38.7175 15.5018C34.9257 17.8729 29.6482 20.2705 23.7906 20.2705C17.9331 20.2705 12.6555 17.8729 8.86376 15.5018C6.96401 14.3139 5.42694 13.1262 4.36393 12.2348C3.8322 11.7889 3.41848 11.4167 3.13668 11.1548C2.99577 11.0239 2.88779 10.9205 2.81449 10.8494C2.77783 10.8138 2.74984 10.7862 2.73074 10.7673L2.70877 10.7454L2.70283 10.7394L2.70113 10.7377L2.7006 10.7372C2.70042 10.737 2.70028 10.7369 3.05576 10.3853C2.70028 10.0336 2.70042 10.0335 2.7006 10.0333L2.70113 10.0328L2.70283 10.0311L2.70877 10.0251L2.73074 10.0032C2.74984 9.98429 2.77783 9.95674 2.81449 9.92115C2.88779 9.84997 2.99577 9.74662 3.13668 9.61569C3.41848 9.35386 3.8322 8.98158 4.36393 8.53569C5.42694 7.64427 6.96401 6.45661 8.86376 5.26869C12.6555 2.89766 17.9331 0.5 23.7906 0.5C29.6482 0.5 34.9257 2.89766 38.7175 5.26869C40.6172 6.45661 42.1543 7.64427 43.2173 8.53569C43.749 8.98158 44.1627 9.35386 44.4445 9.61569C44.5855 9.74662 44.6934 9.84997 44.7667 9.92115C44.8034 9.95674 44.8314 9.98429 44.8505 10.0032L44.8725 10.0251L44.8784 10.0311L44.8801 10.0328L44.8806 10.0333ZM3.05576 10.3853L2.70028 10.7369L2.35248 10.3853L2.70028 10.0336L3.05576 10.3853ZM44.5255 10.3853L44.881 10.0336L45.2287 10.3853L44.881 10.7369L44.5255 10.3853ZM12.4384 23.6993L0 35.8484L0.698739 36.5638L13.1372 24.4146L12.4384 23.6993ZM34.8801 24.4146L47.3185 36.5638L48.0173 35.8484L35.5788 23.6993L34.8801 24.4146ZM23.7188 29.7735L24.3155 48.8645L25.315 48.8333L24.7183 29.7423L23.7188 29.7735ZM28.8093 10.167C28.8093 12.8189 26.6595 14.9687 24.0076 14.9687C21.3557 14.9687 19.2058 12.8189 19.2058 10.167C19.2058 7.51505 21.3557 5.36523 24.0076 5.36523C26.6595 5.36523 28.8093 7.51505 28.8093 10.167ZM27.9361 8.4209C27.9361 9.14416 27.3498 9.73047 26.6265 9.73047C25.9033 9.73047 25.317 9.14416 25.317 8.4209C25.317 7.69764 25.9033 7.11133 26.6265 7.11133C27.3498 7.11133 27.9361 7.69764 27.9361 8.4209Z" fill="black"/>
</svg>
