<svg width="43" height="31" viewBox="0 0 43 31" fill="none" xmlns="http://www.w3.org/2000/svg">
<path fill-rule="evenodd" clip-rule="evenodd" d="M42.1701 0.0336914C42.1701 0.0337271 42.17 0.0337985 42.5255 0.385416C42.8809 0.737033 42.8808 0.737176 42.8806 0.737355L42.8784 0.739603L42.8725 0.745563L42.8505 0.767441C42.8314 0.78638 42.8034 0.813932 42.7667 0.849524C42.6934 0.920704 42.5855 1.02406 42.4445 1.15499C42.1627 1.41681 41.749 1.78909 41.2173 2.23498C40.1543 3.1264 38.6172 4.31406 36.7175 5.50199C32.9257 7.87301 27.6481 10.2707 21.7906 10.2707C15.9331 10.2707 10.6555 7.87301 6.86376 5.50199C4.964 4.31406 3.42693 3.1264 2.36392 2.23498C1.83219 1.78909 1.41848 1.41681 1.13667 1.15499C0.995758 1.02406 0.887779 0.920704 0.814477 0.849524C0.777824 0.813932 0.749836 0.78638 0.730731 0.767441L0.708759 0.745563L0.702819 0.739603L0.70112 0.737891C0.700943 0.737712 0.70027 0.737033 1.05575 0.385416C1.41123 0.0337985 1.41116 0.0337271 1.41112 0.0336915L1.41207 0.034648L1.41628 0.0388735L1.43473 0.0572371C1.45145 0.0738139 1.47699 0.0989619 1.51112 0.13211C1.5794 0.198409 1.68205 0.296691 1.81734 0.422391C2.08795 0.673821 2.48896 1.03477 3.00647 1.46874C4.04194 2.33706 5.54142 3.49572 7.39394 4.6541C11.1067 6.97571 16.1966 9.27067 21.7906 9.27067C27.3846 9.27067 32.4745 6.97571 36.1873 4.6541C38.0398 3.49572 39.5393 2.33706 40.5747 1.46874C41.0923 1.03477 41.4933 0.673821 41.7639 0.422391C41.8992 0.296691 42.0018 0.198409 42.0701 0.13211C42.1042 0.0989618 42.1298 0.0738139 42.1465 0.0572371L42.1649 0.0388734L42.1691 0.034648L42.1701 0.0336914ZM41.5788 21.6994L33.5788 13.6994L34.2859 12.9923L42.2859 20.9923L41.5788 21.6994ZM2.43844 21.6994L10.4384 13.6994L11.1455 14.4065L3.14555 22.4065L2.43844 21.6994ZM22 31.0002V20.0002H23V31.0002H22Z" fill="black"/>
</svg>
