<svg width="20" height="20" viewBox="0 0 20 20" fill="none" xmlns="http://www.w3.org/2000/svg">
<path d="M18.5788 0.0693359H0.85001C0.36429 0.0693359 0 0.427866 0 0.905905V18.4739C0 18.8324 0.36429 19.1909 0.85001 19.1909H9.7144V13.2154H7.2858V9.63013H9.7144V7.23993C9.7144 4.73022 11.1716 3.65463 13.3573 3.65463C14.4502 3.65463 15.543 3.65463 15.7859 3.65463V7.23993H14.5716C13.843 7.23993 13.3573 7.71797 13.3573 8.43503V9.63013H16.5145L15.7859 13.2154H13.3573V19.1909H18.5788C19.0645 19.1909 19.4288 18.8324 19.4288 18.3543V0.905905C19.4288 0.427866 19.0645 0.0693359 18.5788 0.0693359Z" fill="white"/>
</svg>
