<svg width="68" height="27" viewBox="0 0 68 27" fill="none" xmlns="http://www.w3.org/2000/svg">
<g clip-path="url(#clip0)">
<path d="M32.1594 13.1881V21.1073H29.6484V1.55876H36.3081C37.9145 1.52758 39.4585 2.13555 40.6283 3.25795C41.798 4.30241 42.453 5.81453 42.4218 7.37343C42.453 8.94791 41.798 10.46 40.6283 11.5201C39.4585 12.6269 38.0237 13.1881 36.3237 13.1881H32.1594ZM32.1594 3.95945V10.7874H36.3705C37.3062 10.8186 38.2108 10.4444 38.8503 9.77412C40.176 8.49583 40.1916 6.39132 38.9127 5.06627L38.8503 5.00391C38.2108 4.318 37.3062 3.94386 36.3705 3.97504L32.1594 3.95945ZM48.2081 7.29548C50.064 7.29548 51.5301 7.79433 52.6062 8.77643C53.6824 9.77412 54.2127 11.1304 54.2127 12.8607V21.0917H51.8108V19.2366H51.7016C50.6567 20.7643 49.2842 21.5282 47.553 21.5282C46.087 21.5282 44.8393 21.0917 43.8567 20.2187C42.8897 19.4081 42.3439 18.2077 42.375 16.945C42.375 15.5576 42.9053 14.4664 43.9503 13.6402C44.9952 12.814 46.3989 12.4086 48.1457 12.4086C49.6429 12.4086 50.8594 12.6892 51.8264 13.2193V12.6425C51.8264 11.7851 51.4521 10.9745 50.7971 10.4289C50.1264 9.83648 49.2686 9.50911 48.3796 9.50911C46.976 9.50911 45.8686 10.1015 45.042 11.2862L42.8273 9.89883C44.0283 8.16846 45.8218 7.29548 48.2081 7.29548ZM44.964 17.0074C44.964 17.6621 45.276 18.2701 45.7906 18.6442C46.3521 19.0807 47.0383 19.3145 47.7402 19.299C48.8007 19.299 49.8145 18.878 50.5631 18.1298C51.3897 17.3503 51.8108 16.4306 51.8108 15.3705C51.031 14.747 49.9393 14.4352 48.5356 14.4352C47.5218 14.4352 46.664 14.6846 45.9778 15.1679C45.3071 15.6667 44.964 16.2747 44.964 17.0074ZM67.9998 7.73197L59.609 26.9999H57.02L60.1393 20.2655L54.6182 7.74756H57.3475L61.3246 17.3503H61.387L65.2705 7.74756L67.9998 7.73197Z" fill="white"/>
<path d="M22.0061 11.4735C22.0061 10.7096 21.9437 9.94578 21.8189 9.19751H11.229V13.5156H17.296C17.0464 14.9031 16.2354 16.1502 15.0501 16.9296V19.7356H18.6684C20.7895 17.787 22.0061 14.9031 22.0061 11.4735Z" fill="#4285F4"/>
<path d="M11.2277 22.448C14.2534 22.448 16.8111 21.4503 18.6671 19.7355L15.0488 16.9295C14.035 17.6154 12.7405 18.0051 11.2277 18.0051C8.29555 18.0051 5.81573 16.0254 4.92674 13.3752H1.19922V16.2748C3.10197 20.0473 6.98546 22.448 11.2277 22.448Z" fill="#34A853"/>
<path d="M4.92746 13.3755C4.45957 11.988 4.45957 10.4759 4.92746 9.07291V6.18896H1.19993C-0.406488 9.35352 -0.406488 13.0949 1.19993 16.2594L4.92746 13.3755Z" fill="#FBBC04"/>
<path d="M11.2277 4.44279C12.8341 4.41161 14.3781 5.01958 15.5323 6.12639L18.7295 2.93066C16.702 1.01323 14.0194 -0.0312319 11.2277 -5.40246e-05C6.98546 -5.40246e-05 3.10197 2.40064 1.19922 6.18875L4.92674 9.08828C5.81573 6.42258 8.29555 4.44279 11.2277 4.44279Z" fill="#EA4335"/>
</g>
<defs>
<clipPath id="clip0">
<rect width="68" height="27" fill="white"/>
</clipPath>
</defs>
</svg>
