<svg width="592" height="444" viewBox="0 0 592 444" fill="none" xmlns="http://www.w3.org/2000/svg">
<g clip-path="url(#clip0)">
<path d="M306.763 123.239C336.419 93.396 365.94 56.9116 370.029 50.2243C371.736 47.4948 374.522 44.0829 375.241 40.944C375.736 38.8513 374.837 35.9854 373.579 33.6653C372.995 32.5735 372.321 31.6181 371.647 30.9813C369.849 29.0706 367.827 27.7513 365.176 27.8423C363.424 27.8878 363.648 27.8423 362.48 29.7985C362.345 30.0259 361.177 32.3005 360.863 32.8919C355.875 43.264 326.803 78.5202 297.956 107.68C281.24 124.649 249.517 145.075 225.882 159.769C224.085 160.906 222.242 162.043 220.535 163.362C217.929 165.319 217.435 166.547 218.603 169.913C219.142 171.414 219.906 172.643 221.029 173.689C224.264 176.737 228.803 178.966 232.937 177.055C238.598 174.553 284.52 145.666 306.763 123.239Z" fill="black"/>
<path d="M326.847 136.928C352.953 113.545 380.228 74.013 383.553 68.281C385.171 65.5515 387.912 62.6401 388.541 59.4556C389.125 56.5896 387.732 53.4507 386.249 51.0396C385.44 49.7204 382.924 45.4896 380.587 45.2622C380.048 45.2167 379.554 45.3532 379.06 45.8081C378.745 46.081 373.533 54.5425 372.409 56.0437C371.017 57.9999 369.624 59.9105 368.186 61.8212C366.523 64.0958 364.816 66.3704 363.153 68.5995C361.221 71.1925 359.289 73.7401 357.312 76.2421C355.155 79.0626 352.953 81.7921 350.751 84.5671C348.37 87.5241 345.989 90.4356 343.517 93.347C340.911 96.395 338.305 99.4429 335.609 102.445C332.823 105.539 329.992 108.632 327.116 111.635C324.151 114.728 321.14 117.776 318.085 120.733C301.909 136.473 283.306 149.802 265.063 162.995C257.784 168.272 250.37 173.458 243.046 178.69C241.203 180.009 238.957 181.237 237.339 182.784C233.699 186.332 242.057 190.199 244.978 191.2C249.831 192.974 254.099 190.245 258.458 188.243C262.277 186.605 306.537 155.125 326.847 136.928Z" fill="black"/>
<path d="M345.045 17.1954C343.877 19.47 309.233 63.3241 285.508 88.7086C284.25 90.0733 282.947 91.3471 281.644 92.6663C280.251 94.0311 278.813 95.3504 277.375 96.6696C275.847 98.0799 274.275 99.3991 272.747 100.718C271.129 102.083 269.512 103.402 267.849 104.767C266.187 106.086 264.479 107.451 262.772 108.725C261.019 110.09 259.312 111.409 257.559 112.683C255.807 113.957 254.055 115.276 252.302 116.504C250.55 117.778 248.797 119.006 247 120.28C245.248 121.463 243.54 122.645 241.788 123.874C240.08 124.966 238.418 126.148 236.71 127.286C235.093 128.377 233.475 129.424 231.857 130.516C230.33 131.516 228.802 132.472 227.274 133.472C225.836 134.382 224.398 135.292 223.005 136.202C221.747 136.975 220.444 137.794 219.141 138.613C218.018 139.341 216.894 140.023 215.726 140.751C214.783 141.343 213.839 141.888 212.895 142.525C212.131 142.98 211.368 143.435 210.604 143.89C209.256 144.754 206.829 145.71 205.841 146.938C204.403 148.712 205.346 152.124 206.245 154.035C207.458 156.446 209.435 159.175 212.087 160.131C214.558 160.995 216.4 159.812 218.647 158.857C220.085 158.311 267.355 129.56 296.786 100.582C327.431 70.2844 354.301 33.0266 358.121 25.6114C358.39 25.0655 358.48 24.7016 358.57 24.5196C361.221 19.5155 351.246 14.3749 347.516 15.2393C346.528 15.4667 345.629 16.0581 345.045 17.1954Z" fill="black"/>
<path d="M253.876 106.947C254.774 106.72 255.673 106.219 256.482 105.628C260.166 102.807 264.66 100.169 267.985 96.9845C268.569 96.3931 269.423 95.7107 269.692 94.8464C269.737 94.7554 269.737 94.7554 269.737 94.7099C269.962 93.8456 269.378 92.7538 268.794 92.0714C267.401 90.5701 265.558 90.1152 263.581 90.1152C258.504 90.1152 252.123 90.5247 247.091 90.4792C234.329 90.3882 220.445 91.1615 211.638 92.0714C207.324 92.5263 202.966 93.1177 198.652 93.8001C194.743 94.437 192.586 98.2583 193.17 102.307C193.485 104.627 193.979 107.038 194.878 109.176C196.316 112.679 197.529 111.86 200.944 111.314C202.022 111.132 211.773 109.404 222.557 108.676C233.835 107.903 246.911 106.765 250.955 107.129C251.719 107.129 253.202 107.129 253.876 106.947Z" fill="black"/>
<path d="M229.477 32.0178C231.499 33.2006 233.521 34.3833 235.588 35.5661C244.575 40.8887 253.472 46.3932 262.054 52.2616C276.837 62.4063 286.902 74.6891 288.655 75.5989C289.688 76.1448 290.587 75.5989 292.294 73.9612C294.181 72.187 297.821 68.3202 297.776 66.4096C297.596 60.4502 274.95 44.0731 269.153 40.1153C265.289 37.4768 243.227 24.3752 241.654 23.6018C238.329 21.9641 236.127 21.6456 232.667 22.9194C227.994 24.6481 223.771 28.7879 229.477 32.0178Z" fill="black"/>
<path d="M271.668 90.304C272.342 91.3048 272.791 92.2601 274.184 92.1237H274.364C276.251 91.7597 281.643 85.4364 282.721 84.1626C283.305 83.5257 283.755 83.1163 283.44 82.2519C283.171 81.4786 282.317 80.5233 281.778 79.8409C278.992 76.429 266.86 64.2827 256.076 55.8212C246.415 48.3151 229.745 38.3069 226.554 36.7147C223.903 35.3954 221.881 34.4856 219.275 36.2597C216.489 38.1249 212.895 42.4466 215.86 45.4946C217.747 47.4507 221.252 48.7245 223.589 50.1347C231.767 55.0478 240.124 60.0065 247.493 66.1024C260.344 76.7929 271.039 89.4851 271.668 90.304Z" fill="black"/>
<path d="M243.363 16.7778C242.823 18.3245 246.598 19.7802 247.497 20.2807C250.732 22.1458 268.615 31.6536 275.58 36.9307C276.119 37.3401 276.613 37.704 277.153 38.1589C277.692 38.6139 278.276 39.0688 278.815 39.5237C279.399 40.0241 279.984 40.479 280.568 40.9794C281.197 41.5253 281.781 42.0257 282.41 42.5261C283.039 43.0266 283.668 43.527 284.297 44.0729C284.926 44.6188 285.555 45.1647 286.139 45.6651C286.768 46.2565 287.398 46.7569 287.982 47.3028C288.611 47.8487 289.195 48.3491 289.824 48.895C290.408 49.3954 290.992 49.9413 291.576 50.4417C292.116 50.9421 292.655 51.397 293.239 51.943C293.778 52.3979 294.317 52.8528 294.812 53.3532C295.306 53.8081 295.755 54.2175 296.249 54.6725C296.699 55.0819 297.103 55.4913 297.508 55.8553C297.867 56.1737 298.271 56.5376 298.631 56.8561C298.945 57.1745 299.26 57.402 299.575 57.6749C299.799 57.9024 300.024 58.1298 300.249 58.3573C300.383 58.4938 300.518 58.5848 300.653 58.6302C300.743 58.6757 300.833 58.7212 300.923 58.7212C301.057 58.8122 301.282 58.9032 301.417 58.9487C301.731 59.0852 302.136 59.0852 302.45 59.1307C302.81 59.1762 303.169 59.2216 303.484 59.1307C303.619 59.0852 303.753 59.0397 303.888 58.9487C305.146 57.9934 308.921 53.0348 309.46 51.5335C309.46 51.488 309.505 51.3971 309.505 51.3516C310.044 49.5319 308.337 47.8942 307.393 46.5749C306.809 45.8016 297.553 35.7934 286.454 27.0589C276.029 18.8249 263.448 12.3651 259.943 10.5909C256.888 8.99868 253.293 9.31713 250.238 10.7729C248.395 11.7282 244.082 14.6397 243.363 16.7778Z" fill="black"/>
<path d="M199.456 73.876C197.479 76.56 195.322 81.837 196.086 85.2034C196.849 88.5243 200.309 87.296 202.916 87.1141C206.106 86.8866 209.341 86.7501 212.576 86.5682C217.07 86.3407 221.563 85.9768 226.056 86.0223C239.761 86.0223 246.95 85.7493 257.914 86.1587C260.116 86.2497 251.579 77.8337 250.41 76.7419C244.479 71.0555 244.524 71.6924 236.166 71.4194C226.865 71.101 217.474 71.5559 208.128 71.8288C205.027 71.9198 201.478 71.1919 199.456 73.876Z" fill="black"/>
<path d="M337.586 132.971C335.833 134.836 331.16 137.065 333.048 140.159C334.126 141.933 341.9 151.122 346.618 159.629C350.257 166.18 353.807 176.506 354.571 178.69C355.38 181.01 355.335 184.195 358.345 183.876C360.322 183.694 362.255 182.011 363.917 181.056C367.062 179.19 369.669 176.461 369.309 172.503V172.412C369.174 171.002 368.096 169.319 367.557 167.999C365.4 162.768 363.153 157.445 360.322 152.532C357.087 146.937 347.202 133.699 345 130.787C342.169 127.148 339.922 130.56 337.586 132.971Z" fill="black"/>
<path d="M317.95 153.127C314.805 156.129 324.555 166.092 328.15 174.736C330.397 180.104 332.104 185.654 333.587 191.249C333.991 192.841 334.081 195.161 335.654 195.844C337.586 196.754 341.405 195.662 343.203 194.843C347.112 193.023 350.482 189.884 349.763 185.517C349.493 183.834 347.067 173.189 342.484 164.09C338.215 155.765 331.924 148.76 330.621 147.077C327.206 142.755 319.073 152.035 317.95 153.127Z" fill="black"/>
<path d="M347.697 126.558C348.056 128.15 355.47 136.611 361.132 145.209C363.603 148.894 365.535 152.943 367.512 156.946C368.636 159.221 369.804 161.495 370.927 163.77C371.332 164.498 371.736 165.226 372.14 165.954C372.455 166.59 372.68 167.409 373.399 167.637C376.005 168.41 378.161 164.771 379.599 163.133C381.352 161.177 383.643 158.447 382.924 155.536C382.475 153.625 381.217 151.533 380.498 149.713C378.791 145.482 376.948 141.297 374.657 137.294C370.702 130.288 361.671 118.142 359.784 116.368C359.155 115.731 357.627 114.002 356.683 114.139C355.515 114.411 347.427 125.284 347.697 126.558Z" fill="black"/>
<path d="M224.889 129.336C228.304 127.334 231.808 125.332 235.044 123.012C237.47 121.284 241.424 118.964 243.761 117.189C244.614 116.507 249.647 113.505 246.457 112.504C244.165 111.821 239.537 112.231 237.2 112.413C235.673 112.549 226.731 113.186 218.194 114.369C210.33 115.415 202.826 116.916 201.568 117.235C198.558 118.054 196.985 118.281 196.491 121.693C196.086 124.377 196.625 127.471 197.479 130.018C197.973 131.61 199.097 133.157 199.95 134.613C202.152 138.343 205.163 138.798 208.982 136.978C210.15 136.432 211.364 135.841 212.442 135.25C214.779 133.93 223.271 130.291 224.889 129.336Z" fill="black"/>
<path d="M295.8 3.18251C296.114 6.50341 298.541 14.4645 299.035 16.7846C299.754 20.1055 300.742 27.0202 301.911 30.1591C302.989 32.9796 304.876 35.4362 307.213 37.3469C309.909 39.5305 312.56 41.7596 315.705 43.2608C317.907 44.3071 318.671 42.8059 318.761 40.7587C318.895 38.6206 316.559 25.6555 315.75 21.0608C314.807 15.7382 314.043 9.55136 312.021 4.50177C310.044 -0.320363 300.473 -1.04823 296.563 1.27185C295.71 1.77226 295.71 2.31816 295.8 3.18251Z" fill="black"/>
<path d="M368.951 99.7124C365.536 100.213 363.379 105.171 361.402 107.491C358.751 110.676 363.649 113.633 365.671 115.271C368.636 117.818 371.827 118.091 375.646 118.637C379.915 119.137 384.139 119.501 388.452 119.547C390.295 119.547 393.889 120.229 395.417 119.092C396.585 118.228 397.439 115.589 398.023 114.315C398.967 112.132 398.967 109.948 398.832 107.673C398.787 107.082 398.652 104.671 398.203 102.942C397.933 101.896 397.574 101.077 397.079 101.032C392.631 100.213 388.048 100.395 383.599 100.395C380.454 100.44 377.084 100.304 373.939 99.9853C372.411 99.8943 370.434 99.5304 368.951 99.7124Z" fill="black"/>
<path d="M295.393 168.588C293.82 169.68 291.798 170.453 290.45 171.682C288.204 173.729 288.249 182.6 286.901 189.196C286.182 192.881 285.193 196.566 284.609 200.251C284.115 203.571 284.924 203.162 287.889 203.89C291.664 204.754 299.752 206.801 301.414 201.615C301.953 199.978 303.796 189.696 304.2 186.285C305.279 177.641 306.042 171.909 306.357 167.223C306.402 166.45 306.537 164.812 306.402 163.584C306.357 163.084 306.222 162.674 306.042 162.447C304.739 160.855 301.729 164.175 300.695 164.858C298.898 166.086 297.19 167.405 295.393 168.588Z" fill="black"/>
<path d="M310.402 163.956C310.357 165.366 310.357 166.776 310.312 168.141C310.222 174.601 310.132 181.06 309.548 187.475C309.144 192.206 307.571 197.028 307.167 201.714C306.987 204.079 308.38 203.67 310.761 203.943C313.233 204.307 315.749 204.534 318.175 203.988C321.86 203.124 327.656 201.805 327.701 197.438C327.746 192.479 326.398 186.838 324.96 182.107C321.5 170.688 318.535 167.64 316.872 165.138C316.064 163.865 315.165 162.682 314.221 161.499C313.727 160.862 313.233 160.225 312.559 159.77C311.66 159.133 311.166 159.679 310.132 159.952C309.997 161.317 310.447 162.636 310.402 163.956Z" fill="black"/>
<path d="M317.546 4.44717C317.591 5.08406 317.636 5.72094 317.725 6.35783C317.995 8.58693 319.523 14.7283 320.332 19.9144C321.32 26.4197 322.129 33.0615 323.432 34.1988C324.555 35.1996 326.038 34.4263 326.937 33.7439C329.408 31.8332 335.564 23.8722 336.463 22.5529C337.092 21.5976 336.777 21.1427 336.643 20.0964C336.103 15.8201 335.699 11.8168 333.812 8.90537C332.554 6.90373 330.532 5.44799 327.251 4.72012C326.398 4.58365 317.456 2.99143 317.546 4.44717Z" fill="black"/>
<path d="M292.338 25.7427C293.102 26.516 293.417 26.789 294.495 26.516C295.753 26.2431 295.753 25.3332 295.529 24.2869C295.439 23.7865 293.507 16.0074 292.563 12.55C291.844 9.86603 290.99 7.04554 289.642 4.58898C287.306 0.267261 282.004 0.0852936 277.555 1.26808C276.342 1.58652 265.513 4.81644 265.648 5.90824C265.738 6.54513 267.67 7.68243 268.254 8.04636C269.467 8.86521 270.725 9.63857 272.028 10.3664C275.264 12.3226 278.544 14.2332 281.554 16.5988C286.227 20.2382 290.721 24.105 292.338 25.7427Z" fill="black"/>
<path d="M397.799 92.3072C398.787 87.9855 397.978 82.8449 396.675 78.7051C395.956 76.385 393.889 69.2883 390.834 69.4248C388.363 69.5613 386.475 73.1551 385.307 74.9748C384.049 76.8855 371.692 94.2178 371.692 94.4453C372.591 95.7191 375.467 95.7191 376.77 95.8555C379.825 96.1285 391.059 95.81 393.53 95.2187C395.237 94.8092 397.394 94.2178 397.799 92.3072Z" fill="black"/>
<path d="M203.55 61.7767C203.19 63.096 203.55 64.4152 203.101 65.6435C211.458 66.6443 220.939 66.1894 229.342 65.4161C230.645 65.2796 232.397 65.3251 233.611 64.7337C234.015 64.5062 234.24 64.2333 234.24 63.9603C234.285 63.096 232.802 62.0042 232.038 61.5493C230.375 60.5939 220.984 54.8165 218.648 53.5882C216.356 52.4054 215.143 52.4054 212.671 52.3599C211.234 52.3144 209.481 51.996 208.223 52.6329C206.605 53.4517 205.842 55.9538 205.257 57.5005C204.763 59.0017 203.954 60.321 203.55 61.7767Z" fill="black"/>
<path d="M370.39 124.103C370.704 124.421 370.974 124.831 371.244 125.195C372.322 126.559 376.546 131.973 379.152 136.34C380.635 138.797 381.938 141.481 383.286 144.074C383.915 145.257 384.499 146.621 385.398 147.577C386.386 148.714 386.925 147.895 387.824 147.167C388.408 146.712 389.082 146.257 389.621 145.711C390.25 145.12 390.52 144.438 391.014 143.71C392.317 141.754 393.351 139.616 394.205 137.386C395.418 134.247 397.934 127.378 394.25 124.876C392.452 123.648 387.869 124.148 385.667 123.784C381.758 123.193 370.614 122.374 370.255 122.556C370.075 122.647 369.896 122.784 369.761 122.966C369.581 123.42 370.165 123.875 370.39 124.103Z" fill="black"/>
<path d="M269.602 187.292C267.985 188.656 258.414 195.344 257.246 196.072C257.56 195.89 261.514 199.029 262.054 199.302C264.165 200.393 266.457 201.121 268.749 201.667C270.636 202.167 277.78 203.441 278.859 201.758C279.083 201.44 279.308 201.212 279.443 200.848C279.757 200.075 279.982 199.256 280.207 198.437C280.476 197.664 280.881 196.981 281.06 196.163C281.824 193.069 284.296 180.422 284.341 179.285C284.341 178.921 284.251 177.375 284.026 177.238C283.487 176.965 282.768 176.556 282.184 176.692C281.465 176.874 280.926 177.602 280.342 178.011C279.757 178.375 271.13 185.972 269.602 187.292Z" fill="black"/>
<path d="M57.4663 442.281C89.4591 442.417 115.61 414.576 115.745 380.275C115.79 371.996 109.14 365.172 101.097 365.126C93.0088 365.081 86.3586 371.859 86.3586 380.184C86.3586 388.873 82.9886 397.153 77.4618 403.158C71.9349 409.163 64.9702 412.165 57.6011 412.12C50.232 412.12 43.2673 409.072 38.1898 403.021C32.3035 396.971 29.3828 388.646 29.4278 380.002C29.4727 371.723 22.8675 364.854 14.7794 364.854C6.69138 364.854 0.0861425 371.632 0.0412089 379.911C-0.138525 414.167 25.878 442.144 57.4663 442.281Z" fill="black"/>
<path d="M29.4347 364.537L29.8391 240.89C29.884 232.201 33.2091 223.967 38.7809 217.916C43.9482 211.912 50.9129 208.909 58.6415 208.955C66.0106 209 72.9304 212.048 78.0977 218.053C83.6246 224.149 86.9047 232.428 86.8598 241.072C86.8598 249.397 93.4201 256.175 101.508 256.221C109.596 256.266 116.201 249.488 116.246 241.208C116.336 206.907 90.3646 178.93 58.7763 178.793C26.7836 178.657 0.587299 206.452 0.497432 240.753L0.0480957 364.4C3.73265 360.624 9.25948 358.441 14.7414 358.441C20.6726 358.486 25.795 360.715 29.4347 364.537Z" fill="black"/>
<path d="M167.241 365.037L167.826 194.625C167.871 186.345 161.265 179.521 153.177 179.476C145.134 179.43 138.484 186.209 138.439 194.488L137.855 364.9C141.539 361.17 147.066 358.941 152.548 358.941C158.434 358.987 163.602 361.216 167.241 365.037Z" fill="black"/>
<path d="M216.714 401.742C211.187 408.884 203.459 412.614 195.37 412.569C188.046 412.569 181.082 409.521 175.959 403.471C170.477 397.42 167.152 389.095 167.197 380.452C167.242 372.172 160.637 365.348 152.549 365.303C144.506 365.257 137.856 372.036 137.856 380.361C137.721 414.662 163.737 442.684 195.326 442.775C212.58 442.821 228.397 434.951 239.495 421.076C244.708 414.707 243.944 405.29 237.383 399.968C231.093 394.645 221.881 395.373 216.714 401.742Z" fill="black"/>
<path d="M310.176 245.254C281.553 245.163 257.604 268.046 253.065 297.433C252.706 300.072 252.302 302.301 252.302 304.939V307.214C252.302 309.125 252.706 310.626 253.02 312.127C254.863 318.177 260.345 322.363 266.95 322.363C275.038 322.408 281.688 315.63 281.688 307.35V305.076C282.452 297.16 285.418 290.018 290.585 284.377C295.752 278.736 302.717 275.37 310.041 275.415C317.41 275.415 324.375 278.873 329.857 284.514C334.979 290.2 337.9 297.388 338.259 305.258C338.619 306.031 338.619 306.805 338.619 307.532C338.574 315.812 345.179 322.636 353.267 322.681C359.513 322.681 365.399 318.587 367.242 312.582C367.646 311.081 368.005 309.58 368.005 307.669V305.394C367.646 302.756 367.691 300.481 367.287 297.843C363.018 268.455 339.248 245.391 310.176 245.254Z" fill="black"/>
<path d="M353.178 372.081C345.09 372.035 338.44 378.813 338.44 387.093C338.395 395.054 335.789 401.423 330.621 405.926C325.454 410.43 318.085 413.023 309.637 413.023C302.268 412.978 295.303 409.566 290.181 403.925C284.34 397.874 281.419 389.549 281.419 380.906L281.509 356.795C289.956 361.708 299.482 364.756 309.772 364.802C334.036 364.893 354.706 349.107 363.557 326.543C360.277 328.408 356.907 329.136 353.268 329.136C345.18 329.091 338.619 324.906 334.935 318.127C333.452 320.766 331.969 323.404 329.767 325.679C324.196 331.274 317.231 334.686 309.907 334.641C302.583 334.595 295.618 331.183 290.495 325.542C288.294 323.222 286.451 320.584 285.373 317.945C284.25 319.81 283.126 321.357 281.643 322.858C277.959 326.634 272.792 328.863 266.95 328.818C263.266 328.818 259.581 328.044 256.66 326.134C255.223 325.406 253.74 323.859 252.257 322.722L252.077 380.77C251.942 415.07 277.959 443.093 309.547 443.184C325.004 443.23 339.338 438.044 350.032 428.627C361.491 418.482 367.736 403.788 367.781 387.229C367.826 378.904 361.266 372.126 353.178 372.081Z" fill="black"/>
<path d="M419.32 365.895L419.679 260.718C419.724 252.438 413.119 245.614 405.031 245.614C396.988 245.569 390.338 252.347 390.293 260.627L389.933 365.804C393.618 362.028 399.1 359.435 404.627 359.435C410.513 359.48 415.635 362.119 419.32 365.895Z" fill="black"/>
<path d="M471.757 398.512C466.589 407.565 457.737 413.524 447.807 413.524C432.035 413.479 419.184 398.739 419.274 381.362V379.86C418.555 371.945 412.354 365.849 404.626 365.849C396.897 365.803 390.606 371.808 389.888 379.724V381.225C389.798 415.526 415.724 443.503 447.717 443.64C462.41 443.731 476.025 437.726 486.36 427.945C479.395 419.666 474.273 409.839 471.757 398.512Z" fill="black"/>
<path d="M505.635 366.222L505.995 261.044C506.04 252.765 499.435 245.941 491.347 245.896C483.258 245.85 476.653 252.629 476.608 260.908L476.249 366.085C479.933 362.355 485.056 360.126 490.942 359.762C496.469 360.171 501.996 362.446 505.635 366.222Z" fill="black"/>
<path d="M591.638 366.537L591.998 261.36C591.998 253.081 585.437 246.257 577.349 246.257C569.216 246.212 562.611 252.99 562.566 261.269L562.207 366.446C565.936 362.716 571.059 360.078 576.945 360.123C582.472 360.123 587.954 362.762 591.638 366.537Z" fill="black"/>
<path d="M505.23 381.688C505.23 379.05 504.871 376.775 503.792 374.91C501.59 369.997 496.423 366.54 490.582 366.54C484.695 366.494 479.932 369.906 477.326 374.819C476.607 376.684 475.843 378.959 475.843 381.597C475.754 415.898 501.725 443.876 533.673 444.012C559.42 443.739 581.482 425.724 588.941 400.476C590.424 394.835 591.547 388.421 591.592 382.007C591.592 379.368 590.873 377.094 590.11 375.228C587.593 370.315 582.785 366.903 576.944 366.858C571.058 366.858 566.25 370.224 563.689 375.137C562.565 377.003 562.206 379.323 562.206 381.916C562.161 390.559 558.836 398.475 553.309 404.889C548.142 410.53 541.177 413.896 533.808 413.851C526.484 413.805 519.115 410.439 514.037 404.753C508.51 398.293 505.185 390.377 505.23 381.688Z" fill="black"/>
</g>
<defs>
<clipPath id="clip0">
<rect width="592" height="444" fill="white"/>
</clipPath>
</defs>
</svg>
