<svg width="20" height="20" viewBox="0 0 20 20" fill="none" xmlns="http://www.w3.org/2000/svg">
<path d="M14.7478 5.86759C15.3916 5.86759 15.9135 5.35393 15.9135 4.72029C15.9135 4.08666 15.3916 3.573 14.7478 3.573C14.1039 3.573 13.582 4.08666 13.582 4.72029C13.582 5.35393 14.1039 5.86759 14.7478 5.86759Z" fill="white"/>
<path fill-rule="evenodd" clip-rule="evenodd" d="M4.85791 9.63C4.85791 12.2664 7.03637 14.4104 9.71511 14.4104C12.3939 14.4104 14.5723 12.2664 14.5723 9.63C14.5723 6.99362 12.3939 4.84961 9.71511 4.84961C7.03637 4.84961 4.85791 6.99362 4.85791 9.63ZM7.28616 9.63027C7.28616 8.31208 8.37538 7.24008 9.71476 7.24008C11.0541 7.24008 12.1434 8.31208 12.1434 9.63027C12.1434 10.9485 11.0541 12.0205 9.71476 12.0205C8.37538 12.0205 7.28616 10.9485 7.28616 9.63027Z" fill="white"/>
<path fill-rule="evenodd" clip-rule="evenodd" d="M4.8572 19.1909H14.5716C17.0682 19.1909 19.4288 16.8676 19.4288 14.4105V4.84973C19.4288 2.39261 17.0682 0.0693359 14.5716 0.0693359H4.8572C2.3606 0.0693359 0 2.39261 0 4.84973V14.4105C0 16.8676 2.3606 19.1909 4.8572 19.1909ZM2.42784 4.84964C2.42784 3.73223 3.72107 2.45945 4.85645 2.45945H14.5709C15.7062 2.45945 16.9995 3.73223 16.9995 4.84964V14.4104C16.9995 15.5279 15.7062 16.8006 14.5709 16.8006H4.85645C3.69922 16.8006 2.42784 15.5494 2.42784 14.4104V4.84964Z" fill="white"/>
</svg>
