<svg width="80" height="59" viewBox="0 0 80 59" fill="none" xmlns="http://www.w3.org/2000/svg">
<path d="M43.215 12.9857C39.4905 9.10957 34.8781 5.29897 34.0008 4.72844C33.6824 4.48483 33.2041 4.15918 32.8024 4.07334C32.562 3.99002 32.1564 4.14271 31.8313 4.29666C31.6688 4.37364 31.5869 4.45189 31.505 4.53013C31.2593 4.76487 31.0941 5.00087 31.0888 5.31892C31.0849 5.55746 31.0862 5.47795 31.3253 5.64078C31.3253 5.64078 31.6451 5.80487 31.7243 5.88565C33.0839 6.54329 37.5351 10.3514 41.2623 14.0685C43.4026 16.2496 45.9143 20.3453 47.7984 23.3972C47.9556 23.6382 48.1128 23.8793 48.27 24.1204C48.5065 24.4422 48.6664 24.5243 49.072 24.3716C49.2345 24.2946 49.397 24.2176 49.5609 24.0611C49.9705 23.6699 50.2215 23.1171 49.9889 22.5567C49.5979 21.8348 46.0689 15.8938 43.215 12.9857Z" fill="white"/>
<path d="M45.0419 10.4484C42.1152 7.06195 37.0955 3.48356 36.3767 3.07459C36.0583 2.83099 35.6606 2.5066 35.2589 2.42076C34.8572 2.33491 34.4515 2.48759 34.2058 2.72233C34.0433 2.7993 33.4738 3.10848 33.4685 3.42653C33.4672 3.50605 33.4659 3.58556 33.5465 3.58683C33.5465 3.58683 34.663 4.32018 34.8215 4.48174C35.0607 4.64457 35.2998 4.80739 35.5377 5.04973C35.8561 5.29334 36.0953 5.45617 36.4137 5.69978C36.7322 5.94338 37.0506 6.18699 37.369 6.4306C37.6875 6.6742 38.0852 6.99859 38.4023 7.32171C38.8 7.64609 39.1171 7.96921 39.5149 8.2936C39.9126 8.61798 40.3103 8.94237 40.6261 9.345C41.0238 9.66939 41.4202 10.0733 41.8166 10.4772C42.213 10.8811 42.6094 11.285 42.9265 11.6081C44.9072 13.7071 46.5602 16.1191 48.2145 18.4516C48.8434 19.4159 49.553 20.3814 50.1832 21.2662C50.3405 21.5073 50.4964 21.8278 50.7355 21.9907C51.2112 22.4753 51.7133 21.3698 51.7992 21.053C52.0516 20.4207 51.6578 19.8578 51.4253 19.2974C51.2733 18.7383 47.3358 13.109 45.0419 10.4484Z" fill="white"/>
<path d="M29.7835 7.9107C30.1033 8.07479 35.5919 12.5355 38.7644 15.6872C38.9229 15.8488 39.0815 16.0103 39.24 16.1719C39.3986 16.3334 39.5558 16.5745 39.7144 16.7361C39.8729 16.8976 40.0302 17.1387 40.1887 17.3003C40.346 17.5414 40.5045 17.7029 40.6618 17.944C40.819 18.1851 40.9776 18.3466 41.1348 18.5877C41.292 18.8288 41.4493 19.0698 41.6078 19.2314C41.765 19.4725 41.9223 19.7136 42.0808 19.8751C42.2381 20.1162 42.3953 20.3573 42.5539 20.5188C42.7111 20.7599 42.8683 21.001 43.0269 21.1625C43.1841 21.4036 43.3427 21.5652 43.4193 21.805C43.5766 22.0461 43.6545 22.2064 43.8117 22.4474C43.9703 22.609 44.0469 22.8488 44.2055 23.0104C44.2834 23.1707 44.4407 23.4117 44.5186 23.572C44.5966 23.7323 44.7552 23.8939 44.8331 24.0542C44.9111 24.2145 44.989 24.3748 45.0683 24.4555C45.1463 24.6158 45.2255 24.6966 45.3035 24.8569C45.3828 24.9377 45.3815 25.0172 45.4594 25.1775C45.5374 25.3378 45.6933 25.6584 45.8518 25.82C46.091 25.9828 46.4953 25.9096 46.7397 25.7544C47.0648 25.6004 47.3911 25.3669 47.5576 25.0514C47.6435 24.7346 47.4863 24.4936 47.411 24.1742C47.333 24.014 43.8064 17.9139 40.161 14.1185C36.3569 10.1615 31.6584 6.66763 30.7005 6.09583C30.6199 6.09456 30.6212 6.01505 30.5406 6.01378C29.9011 5.68559 29.2352 6.94766 29.3078 7.42601C29.5457 7.66836 29.6236 7.82865 29.7835 7.9107Z" fill="white"/>
<path d="M41.0083 19.7215C41.0096 19.642 40.9317 19.4817 40.8525 19.401C40.5382 18.9189 40.1446 18.3561 39.7485 17.9522C39.6692 17.8714 39.59 17.7907 39.5108 17.7099C39.4302 17.7086 39.2678 17.7856 39.1872 17.7843C39.0235 17.9408 38.939 18.178 38.935 18.4165C38.9244 19.0526 38.9918 19.8488 38.9812 20.4848C38.9548 22.0748 39.005 23.9046 39.1476 25.0201C39.219 25.5779 39.2903 26.1357 39.3616 26.6935C39.4342 27.1717 39.9123 27.4973 40.3969 27.4254C40.7204 27.351 40.9621 27.3548 41.287 27.2009C41.7729 27.0495 41.6145 26.8879 41.5418 26.4097C41.5445 26.2507 41.3226 25.0544 41.2658 23.6221C41.209 22.1898 41.0757 20.5178 41.1655 19.9625C41.0849 19.9613 41.0875 19.8023 41.0083 19.7215Z" fill="white"/>
<path d="M31.4536 22.6609C31.6188 22.4249 31.7853 22.1094 31.9504 21.8734C32.6136 20.7704 33.3587 19.5891 34.1012 18.5669C35.4224 16.679 37.0553 15.4322 37.1399 15.1949C37.2231 15.0371 37.1439 14.9564 36.9061 14.714C36.6682 14.4717 36.1926 13.9871 35.9508 13.9832C35.2255 13.9718 33.0813 16.8807 32.5053 17.5875C32.175 18.0594 30.435 20.8952 30.3518 21.0529C30.1034 21.4467 30.0981 21.7647 30.2527 22.1648C30.4839 22.8047 31.0388 23.3701 31.4536 22.6609Z" fill="white"/>
<path d="M38.9782 17.3815C39.1408 17.3046 39.2227 17.2263 39.2253 17.0673C39.1487 16.8275 38.3545 16.0992 38.1946 16.0171C38.1154 15.9364 38.0361 15.8556 37.9542 15.9338C37.8736 15.9326 37.7097 16.089 37.6278 16.1673C37.2195 16.479 35.581 18.0439 34.5107 19.3792C33.5236 20.5567 32.1983 22.6833 32.0305 23.0783C31.864 23.3938 31.7781 23.7106 31.934 24.0312C32.1705 24.353 32.7268 24.839 33.1365 24.4478C33.3822 24.213 33.5514 23.7385 33.7165 23.5025C34.3786 22.4789 35.0419 21.3759 35.7818 20.5126C37.2604 18.8657 38.8963 17.4598 38.9782 17.3815Z" fill="white"/>
<path d="M29.5406 20.8768C29.7005 20.9588 29.9502 20.4856 30.0334 20.3278C30.2818 19.9341 31.5289 17.6472 32.1882 16.7828C32.2701 16.7045 32.2714 16.625 32.3533 16.5468C32.4352 16.4685 32.4366 16.389 32.5185 16.3108C32.6004 16.2325 32.6823 16.1543 32.6836 16.0748C32.7655 15.9965 32.8474 15.9183 32.8488 15.8388C32.9307 15.7605 33.0126 15.6823 33.0139 15.6028C33.0958 15.5245 33.1777 15.4463 33.2596 15.368C33.3415 15.2898 33.4234 15.2115 33.5054 15.1333C33.5873 15.0551 33.6692 14.9768 33.7511 14.8986C33.833 14.8203 33.9149 14.7421 33.9162 14.6626C33.9981 14.5843 34.08 14.5061 34.0814 14.4266C34.1633 14.3483 34.1646 14.2688 34.2465 14.1906C34.3284 14.1123 34.3297 14.0328 34.4103 14.0341C34.4922 13.9558 34.4922 13.9558 34.5742 13.8776C34.5755 13.7981 34.6561 13.7994 34.738 13.7211L34.8199 13.6429L34.9018 13.5646C34.9018 13.5646 34.9018 13.5646 34.9031 13.4851L34.9044 13.4056C34.9058 13.3261 34.9058 13.3261 34.9071 13.2466C34.9084 13.1671 34.9084 13.1671 34.9097 13.0876C34.9097 13.0876 34.9097 13.0876 34.911 13.008C34.7525 12.8465 34.1963 12.3606 33.9559 12.2772C33.7154 12.1939 33.5503 12.4299 33.3072 12.5056C33.2253 12.5839 31.916 13.7563 30.764 15.1697C29.6939 16.5049 28.8616 18.0825 28.6119 18.5558C28.3635 18.9495 28.4362 19.4278 28.5907 19.8279C28.8259 20.2293 29.2196 20.7922 29.5406 20.8768Z" fill="white"/>
<path d="M36.7249 26.566C37.0432 26.8096 37.7628 27.139 38.1682 26.9863C38.5722 26.9132 38.4177 26.5132 38.423 26.1952C38.4296 25.7977 38.3557 25.3989 38.3623 25.0014C38.3715 24.4449 38.3002 23.8871 38.3108 23.2511C38.3398 21.5021 38.3556 20.5481 38.3781 19.1966C38.3834 18.8786 37.3178 19.9752 37.1541 20.1316C36.4159 20.9152 36.4978 20.837 36.4793 21.95C36.379 23.1412 36.4397 24.335 36.5005 25.5287C36.4952 25.8467 36.4067 26.3225 36.7249 26.566Z" fill="white"/>
<path d="M44.5817 9.10829C44.8196 9.35066 45.0521 9.91113 45.4591 9.6789C45.7035 9.52365 46.8477 8.58711 47.9867 7.96866C48.8006 7.50419 50.1787 7.0486 50.4218 6.97288C50.7455 6.89842 51.1485 6.90476 51.0745 6.50587C51.0784 6.2673 50.8406 6.02493 50.764 5.78509C50.5288 5.38367 50.2117 5.06051 49.6475 5.05164C49.4863 5.0491 49.2419 5.20434 49.0794 5.28133C48.4306 5.50976 47.6999 5.81645 47.1291 6.2052C46.3972 6.59141 44.6835 7.83717 44.3558 8.1502C43.7863 8.45942 44.2646 8.78512 44.5817 9.10829Z" fill="white"/>
<path d="M47.1154 11.6096C47.5119 12.0135 48.8227 10.7615 49.8772 10.3804C50.6079 10.0737 51.2554 9.9248 51.9848 9.69766C52.228 9.62194 52.4698 9.62574 52.553 9.46797C52.6376 9.23068 52.5649 8.75231 52.4077 8.51122C52.1738 8.0303 51.7787 7.54686 51.2131 7.6175C50.9713 7.6137 49.5957 7.91023 48.4567 8.52864C47.3995 9.06879 46.4997 9.85003 46.2552 10.0053C45.765 10.3953 46.9569 11.448 47.1154 11.6096Z" fill="white"/>
<path d="M43.6985 7.76122C43.9416 7.6855 45.004 6.82719 46.1457 6.04968C46.6346 5.73918 47.1222 5.50821 47.6904 5.27851C48.0155 5.12452 48.2599 4.96928 48.585 4.8153C48.6669 4.73704 48.7475 4.73831 48.8295 4.66005C48.9114 4.58179 48.992 4.58306 49.0739 4.5048C49.1598 4.18796 48.6815 3.86225 48.5229 3.70067C48.285 3.45829 47.9666 3.21464 47.5622 3.28783C47.3191 3.36355 47.0746 3.5188 46.8315 3.59453C46.2633 3.82423 45.7757 4.05521 45.2075 4.28491C44.3129 4.74812 42.7616 5.91692 42.5159 6.1517C42.4339 6.22996 42.1895 6.38521 42.1868 6.54426C42.1829 6.78283 43.536 7.83821 43.6985 7.76122Z" fill="white"/>
<path d="M43.8463 23.4117C43.6126 22.9309 43.3775 22.5296 43.0618 22.127C42.8254 21.8052 42.5917 21.3244 42.3553 21.0026C42.276 20.9219 41.8838 20.2795 41.7966 20.6758C41.7108 20.9925 41.7821 21.5503 41.7768 21.8683C41.7742 22.0273 41.8349 23.221 41.9789 24.257C42.1228 25.2931 42.2681 26.2496 42.346 26.4099C42.42 26.8086 42.4979 26.9689 42.8994 27.0547C43.2203 27.1393 43.6245 27.0661 43.9494 26.9122C44.1924 26.8365 44.3561 26.68 44.5186 26.6031C45.0072 26.2927 45.0931 25.976 44.8593 25.4952C44.7814 25.3349 44.7035 25.1746 44.6255 25.0144C44.3878 24.7721 43.9229 23.6515 43.8463 23.4117Z" fill="white"/>
<path d="M27.8937 14.1731C28.2981 14.0999 29.3499 13.8778 29.6737 13.8033C30.078 13.7301 30.9673 13.585 31.373 13.4323C31.6981 13.2783 32.0245 13.0448 32.2716 12.7305C32.5187 12.4162 32.8477 12.0236 33.0155 11.6285C33.1807 11.3924 33.0208 11.3104 32.6984 11.3053C32.4566 11.3015 30.7585 11.593 30.193 11.6637C29.5455 11.8126 28.7381 11.8794 28.0893 12.1079C27.4405 12.3363 27.3401 13.528 27.6532 14.0897C27.7325 14.1705 27.8131 14.1718 27.8937 14.1731Z" fill="white"/>
<path d="M40.3699 4.96429C40.4425 5.4426 41.0832 5.69126 41.3209 5.93358C41.7185 6.25795 42.132 5.62822 42.2971 5.39224C42.626 4.99977 42.7132 4.6035 42.7211 4.12645C42.811 3.57117 42.8202 3.01461 42.8295 2.45806C42.8334 2.21954 42.9219 1.74376 42.7634 1.58221C42.6855 1.42193 42.2839 1.33608 42.1241 1.25404C41.8836 1.17073 41.5627 1.08616 41.239 1.1606C41.1584 1.15933 40.8361 1.15426 40.5931 1.22997C40.4319 1.22743 40.35 1.30568 40.3487 1.38518C40.2589 1.94047 40.2496 2.49702 40.2391 3.13308C40.2325 3.53062 40.2259 3.92815 40.1374 4.40393C40.3765 4.56675 40.3725 4.80527 40.3699 4.96429Z" fill="white"/>
<path d="M49.0077 14.4981C49.165 14.7393 49.2416 14.9792 49.4002 15.1408C49.6367 15.4627 50.7652 15.4805 51.6493 15.6535C52.1316 15.7406 52.6126 15.9073 53.095 15.9944C53.4967 16.0803 53.498 16.0008 53.5852 15.6044C53.6738 15.1284 54.0134 14.0995 53.2919 13.8495C53.0514 13.7661 51.7656 13.5073 51.3625 13.5009C50.2367 13.3241 49.5125 13.2331 48.9482 13.2243C48.8676 13.223 48.6258 13.2192 48.4646 13.2167C48.384 13.2154 48.384 13.2154 48.302 13.2937C48.0576 13.4489 48.5346 13.8542 48.6126 14.0146C48.6919 14.0954 48.8505 14.257 49.0077 14.4981Z" fill="white"/>
<path d="M48.4827 12.6162C48.644 12.6187 48.8052 12.6212 49.0471 12.625C49.8533 12.6377 50.6594 12.6504 51.5449 12.7439C52.1886 12.8335 52.7503 13.0015 53.3939 13.0911C53.7164 13.0962 53.6384 12.9359 53.7243 12.619C53.8102 12.3022 53.8155 11.984 53.7402 11.6646C53.6675 11.1862 53.5181 10.4678 52.9538 10.459C52.3088 10.4488 51.5806 10.5965 51.0136 10.7467C49.5546 11.201 49.1462 11.5128 48.8197 11.7464C48.6572 11.8234 48.4933 11.9799 48.3307 12.0569C48.2488 12.1352 48.1668 12.2134 48.0849 12.2917C48.003 12.37 48.0823 12.4508 48.0796 12.6098C48.1589 12.6906 48.3215 12.6136 48.4827 12.6162Z" fill="white"/>
<path d="M28.0906 11.3722C28.1712 11.3735 28.2518 11.3747 28.3324 11.376C28.6548 11.3811 29.3841 11.1538 30.0303 11.0844C30.8389 10.938 31.7268 10.8724 31.8907 10.7159C32.0545 10.5593 31.896 10.3977 31.818 10.2374C31.5815 9.91539 30.5469 9.10349 30.387 9.02141C30.2271 8.93933 30.2271 8.93933 30.0646 9.01634C29.4991 9.08701 29.0155 9.0794 28.6072 9.39123C28.3628 9.54651 28.117 9.78134 28.0285 10.2573C28.1091 10.2586 27.9294 11.3697 28.0906 11.3722Z" fill="white"/>
<path d="M30.8032 14.6141C30.8851 14.5359 30.967 14.4577 30.8877 14.3769C30.8904 14.2179 30.7292 14.2154 30.568 14.2128C30.4874 14.2116 29.5164 14.4349 29.0303 14.5863C28.7066 14.6607 28.301 14.8134 27.976 14.9673C27.4066 15.2765 27.3961 15.9125 27.548 16.4716C27.6259 16.6319 28.0064 17.9898 28.087 17.9911C28.1676 17.9923 28.3327 17.7563 28.3341 17.6768C28.4173 17.5191 28.5811 17.3626 28.6643 17.2049C28.9127 16.8112 29.1611 16.4174 29.49 16.025C30.0647 15.3978 30.5575 14.8489 30.8032 14.6141Z" fill="white"/>
<path d="M39.468 1.31574C38.9066 1.14786 38.2594 1.29673 37.6928 1.44686C37.3691 1.5213 36.4775 1.82536 36.4723 2.14337C36.467 2.46138 36.9465 2.70748 37.1855 2.87029C37.4246 3.03309 39.6543 4.6586 39.6543 4.6586C39.8167 4.58163 39.8234 4.18412 39.826 4.02512C39.8326 3.62761 39.8564 2.19659 39.7811 1.87731C39.785 1.63881 39.7084 1.39904 39.468 1.31574Z" fill="white"/>
<path d="M35.2059 26.0423C35.3658 26.1243 35.5283 26.0474 35.6882 26.1294C35.8666 25.0983 35.8071 23.8249 35.7437 22.79C35.7463 22.631 35.7503 22.3924 35.6723 22.2321C35.6736 22.1526 35.593 22.1514 35.593 22.1514C35.5124 22.1501 35.3486 22.3066 35.2654 22.4643C35.1002 22.7003 34.355 23.8816 34.1899 24.1176C34.0234 24.4331 34.0207 24.5921 34.0155 24.9101C34.0128 25.0692 33.9282 25.3064 34.0062 25.4667C34.0828 25.7065 34.4039 25.7911 34.6444 25.8744C34.8056 25.8769 35.046 25.9602 35.2059 26.0423Z" fill="white"/>
<path d="M43.5054 4.87642C43.5873 4.79818 43.5873 4.79818 43.6679 4.79945C43.8317 4.64298 44.5662 4.09786 45.1356 3.78872C45.4606 3.63478 45.7855 3.48084 46.1118 3.24739C46.2743 3.17042 46.4368 3.09346 46.5993 3.01649C46.7631 2.86002 46.6825 2.85875 46.524 2.69721C46.4448 2.61644 46.4461 2.53693 46.3668 2.45616C46.2875 2.37539 46.207 2.37412 46.1277 2.29335C45.8886 2.13055 45.5689 1.96647 45.3284 1.88317C44.9282 1.71782 44.047 1.38587 43.7167 1.85782C43.5516 2.0938 43.6229 2.65159 43.5371 2.96834C43.4486 3.44409 43.3442 4.87389 43.3429 4.95339C43.3429 4.95339 43.3416 5.0329 43.4221 5.03416C43.3429 4.95339 43.4248 4.87515 43.5054 4.87642Z" fill="white"/>
<path d="M51.3645 17.8799C51.5217 18.1209 52.3881 19.3273 52.4661 19.4876C52.4674 19.4081 52.8782 18.9374 52.8795 18.8579C53.0446 18.622 53.1304 18.3052 53.2163 17.9885C53.3008 17.7513 53.4765 16.8794 53.2374 16.7166L53.1582 16.6358C53.0776 16.6345 52.9178 16.5525 52.8372 16.5512C52.7566 16.55 52.6774 16.4692 52.5162 16.4667C52.1147 16.3808 50.5086 16.0375 50.3474 16.035C50.2669 16.0337 50.1057 16.0312 50.1057 16.0312C50.1044 16.1107 50.0225 16.1889 50.0212 16.2684C50.0199 16.3479 50.0991 16.4287 50.1784 16.5094C50.259 16.5107 51.2073 17.6389 51.3645 17.8799Z" fill="white"/>
<path d="M7.89516 56.79C12.0867 56.8559 15.6122 53.332 15.6848 48.9584C15.702 47.9246 14.8299 47.0359 13.782 47.0195C12.7341 47.003 11.8329 47.8638 11.8158 48.8975C11.7973 50.0108 11.3771 51.0383 10.5578 51.8208C9.81911 52.6046 8.92584 52.9882 7.95989 52.8935C6.99262 52.8783 6.11255 52.4668 5.40031 51.6601C4.60746 50.8523 4.30221 49.8134 4.3207 48.7002C4.33788 47.6664 3.46575 46.7777 2.41787 46.7613C1.36999 46.7448 0.46879 47.6056 0.451616 48.6393C0.377634 53.0925 3.78425 56.7254 7.89516 56.79Z" fill="white"/>
<path d="M4.36339 46.8L4.70683 30.9792C4.72532 29.8661 5.22603 28.8401 5.96455 28.0564C6.62247 27.2715 7.59615 26.8891 8.56191 26.9838C9.52898 26.999 10.4089 27.4105 11.121 28.217C11.8331 29.0235 12.2188 30.0634 12.2003 31.1766C12.1832 32.2102 13.0551 33.0987 14.1028 33.1152C15.1505 33.1316 16.0515 32.271 16.0687 31.2374C16.1413 26.8644 12.816 23.2333 8.62663 23.0879C4.43597 23.022 0.911172 26.5454 0.838525 30.9184L0.49509 46.7392C0.986553 46.2698 1.71714 45.9631 2.44245 45.9745C3.24835 45.9872 3.88778 46.3154 4.36339 46.8Z" fill="white"/>
<path d="M22.5074 47.176L22.9508 25.3151C22.968 24.2816 22.0968 23.3932 21.05 23.3767C20.0033 23.3602 19.1031 24.2208 19.0859 25.2543L18.6425 47.1152C19.1335 46.6458 19.8635 46.3392 20.5881 46.3506C21.3933 46.3633 22.0322 46.6914 22.5074 47.176Z" fill="white"/>
<path d="M28.9646 51.9467C28.2247 52.81 27.1676 53.3502 26.1211 53.2542C25.1539 53.239 24.2739 52.8274 23.5617 52.0208C22.8495 51.2142 22.4637 50.1741 22.4822 49.0608C22.4994 48.027 21.6273 47.1383 20.5795 47.1218C19.5317 47.1054 18.6305 47.9662 18.6134 48.9999C18.5407 53.3736 21.8665 57.0053 26.0564 57.1508C28.3132 57.1863 30.426 56.1854 31.9059 54.4588C32.5639 53.6737 32.5031 52.4796 31.709 51.7512C30.833 51.1011 29.6227 51.1616 28.9646 51.9467Z" fill="white"/>
<path d="M41.5392 32.1216C37.751 32.062 34.5587 34.9549 33.9324 38.6836C33.8465 39.0004 33.8412 39.3185 33.8359 39.6366L33.8306 39.9547C33.8267 40.1933 33.9046 40.3536 33.9007 40.5922C34.1293 41.3912 34.8467 41.8797 35.7334 41.8937C36.7812 41.9102 37.6823 41.0493 37.6995 40.0155L37.7048 39.6975C37.8025 38.6649 38.2201 37.7965 38.9574 37.0922C39.6141 36.3867 40.5892 35.9247 41.5551 36.0195C42.5223 36.0347 43.401 36.5257 44.1145 37.2529C44.7474 37.9787 45.1346 38.9393 45.1994 39.8949C45.2786 39.9756 45.2773 40.0552 45.2747 40.2142C45.2575 41.248 46.1296 42.1367 47.1774 42.1532C47.9834 42.1658 48.7987 41.6219 49.0524 40.91C49.1356 40.7522 49.1396 40.5136 49.1435 40.275L49.1488 39.957C49.0735 39.6376 49.0788 39.3195 49.0841 39.0014C48.5027 35.1742 45.4081 32.1824 41.5392 32.1216Z" fill="white"/>
<path d="M46.9027 48.4077C45.855 48.3913 44.9538 49.252 44.9367 50.2856C44.9195 51.3192 44.5839 52.1093 43.8493 52.6544C43.1952 53.2009 42.2228 53.5037 41.0944 53.486C40.1272 53.4708 39.2486 52.9798 38.5351 52.2528C37.7423 51.445 37.4371 50.4063 37.4556 49.2931L37.5071 46.1922C38.6249 46.846 39.8273 47.2626 41.1974 47.2841C44.4214 47.3348 47.1141 45.3889 48.372 42.466C47.965 42.6982 47.4801 42.7701 46.9965 42.7625C45.9487 42.746 45.0714 42.1755 44.6024 41.2933C44.4359 41.6088 44.1875 42.0025 43.9417 42.2373C43.2045 42.9415 42.3113 43.3251 41.3441 43.3099C40.3769 43.2947 39.4983 42.8037 38.7848 42.0767C38.4677 41.7535 38.2312 41.4317 38.1558 41.1124C37.9907 41.3484 37.8268 41.5049 37.6617 41.7409C37.1702 42.2103 36.5201 42.5182 35.7141 42.5056C35.2305 42.498 34.7483 42.4108 34.3492 42.166C34.1894 42.0839 33.9515 41.8416 33.7917 41.7595L33.6675 49.2336C33.5948 53.6067 36.9205 57.2379 41.1103 57.3833C43.1252 57.415 45.0701 56.8093 46.4601 55.6382C48.0126 54.3901 48.8503 52.4945 48.886 50.3477C48.8226 49.3128 48.0311 48.4255 46.9027 48.4077Z" fill="white"/>
<path d="M55.6392 47.7685L55.9428 34.3337C55.96 33.3002 55.0885 32.4117 54.0415 32.3952C52.9944 32.3788 52.0939 33.2394 52.0768 34.2729L51.7731 47.7077C52.2643 47.2383 52.9945 46.9317 53.7194 46.9431C54.5248 46.9557 55.1638 47.2839 55.6392 47.7685Z" fill="white"/>
<path d="M62.5162 52.1156C61.8516 53.2982 60.6307 53.9948 59.3411 53.9746C57.2455 53.9416 55.5846 52.0066 55.6216 49.7802L55.6242 49.6212C55.5608 48.5862 54.768 47.7784 53.7202 47.7619C52.6724 47.7454 51.8532 48.5279 51.7568 49.4808L51.7541 49.6399C51.6815 54.0132 55.0072 57.6446 59.1971 57.79C61.1315 57.8204 62.9179 57.0532 64.3079 55.882C63.4385 54.8344 62.8148 53.552 62.5162 52.1156Z" fill="white"/>
<path d="M66.9971 48.0217L67.3021 34.5082C67.3192 33.4748 66.4477 32.5864 65.4006 32.5699C64.3535 32.5534 63.4529 33.414 63.4357 34.4474L63.1321 47.8814C63.6233 47.412 64.273 47.1041 65.0784 47.1168C65.8021 47.2077 66.5217 47.5371 66.9971 48.0217Z" fill="white"/>
<path d="M78.2979 48.2197L78.6015 34.7857C78.6187 33.7522 77.7472 32.8638 76.7001 32.8473C75.6531 32.8308 74.7526 33.6914 74.7354 34.7249L74.4318 48.1589C74.9229 47.6895 75.5726 47.3816 76.378 47.3943C77.1029 47.4057 77.8225 47.7351 78.2979 48.2197Z" fill="white"/>
<path d="M66.9182 50.0211C66.9235 49.703 66.8482 49.3837 66.7716 49.1438C66.4598 48.5026 65.8216 48.0948 65.0156 48.0821C64.2096 48.0695 63.6388 48.4582 63.2253 49.0881C63.1407 49.3254 63.0548 49.6422 63.0496 49.9603C62.9769 54.334 66.3832 57.9671 70.5742 58.033C73.9593 58.0862 76.8991 55.8257 77.9205 52.5804C78.0936 51.8673 78.2693 50.995 78.2825 50.1998C78.2878 49.8817 78.2125 49.5624 78.1358 49.3225C77.824 48.6813 77.1858 48.2735 76.3799 48.2608C75.5739 48.2482 75.0031 48.6369 74.5895 49.2668C74.4244 49.5028 74.4191 49.8209 74.4138 50.139C74.3953 51.2523 73.9752 52.2798 73.156 53.0623C72.4993 53.7679 71.5242 54.2298 70.5584 54.1351C69.5912 54.1199 68.6319 53.6275 67.999 52.9017C67.3675 52.0963 66.8997 51.1344 66.9182 50.0211Z" fill="white"/>
</svg>
