<svg width="56" height="46" viewBox="0 0 56 46" fill="none" xmlns="http://www.w3.org/2000/svg">
<path d="M13.6334 39.8321V37.5617C13.6465 37.3707 13.6192 37.1792 13.5531 36.9997C13.4871 36.8203 13.384 36.6571 13.2505 36.521C13.1171 36.385 12.9565 36.2792 12.7793 36.2107C12.6022 36.1422 12.4126 36.1125 12.2232 36.1237C11.9754 36.1073 11.7277 36.1584 11.506 36.2715C11.2843 36.3847 11.0969 36.5558 10.9631 36.767C10.8412 36.5621 10.6667 36.3942 10.4582 36.281C10.2496 36.1678 10.0146 36.1135 9.77797 36.1237C9.5717 36.1132 9.36629 36.1573 9.18209 36.2515C8.99789 36.3458 8.8413 36.487 8.72784 36.6611V36.2146H7.94775V39.8321H8.73535V37.8417C8.71859 37.718 8.72913 37.5921 8.76621 37.473C8.80329 37.3538 8.866 37.2445 8.94984 37.1526C9.03369 37.0608 9.13661 36.9888 9.25124 36.9418C9.36587 36.8947 9.48938 36.8738 9.61295 36.8805C10.1305 36.8805 10.393 37.2211 10.393 37.8341V39.8473H11.1806V37.8417C11.1646 37.7181 11.1756 37.5925 11.2129 37.4737C11.2502 37.3548 11.313 37.2458 11.3967 37.1541C11.4804 37.0624 11.583 36.9904 11.6973 36.9431C11.8116 36.8959 11.9348 36.8745 12.0582 36.8805C12.5908 36.8805 12.8458 37.2211 12.8458 37.8341V39.8473L13.6334 39.8321ZM25.286 36.2146H24.0034V35.1172H23.2158V36.2146H22.5032V36.9335H23.2308V38.5985C23.2308 39.4386 23.5533 39.9381 24.4759 39.9381C24.8206 39.9392 25.1586 39.8422 25.451 39.6581L25.226 38.9845C25.0168 39.1104 24.7794 39.1807 24.5359 39.1888C24.1609 39.1888 24.0184 38.9466 24.0184 38.5834V36.9335H25.2935L25.286 36.2146ZM31.9393 36.1237C31.7491 36.1181 31.5609 36.1643 31.3946 36.2576C31.2282 36.3508 31.0899 36.4876 30.9942 36.6535V36.2146H30.2216V39.8321H31.0017V37.8039C31.0017 37.206 31.2567 36.873 31.7518 36.873C31.9186 36.8707 32.0843 36.9015 32.2393 36.9638L32.4794 36.207C32.3012 36.1427 32.1135 36.1094 31.9243 36.1086L31.9393 36.1237ZM21.8806 36.5021C21.4391 36.2373 20.9314 36.1059 20.418 36.1237C19.5103 36.1237 18.9178 36.5627 18.9178 37.2817C18.9178 37.872 19.3528 38.2352 20.1554 38.3488L20.5305 38.4017C20.958 38.4623 21.1605 38.5758 21.1605 38.7802C21.1605 39.0602 20.8755 39.2191 20.3429 39.2191C19.9146 39.2316 19.4945 39.0983 19.1503 38.8407L18.7753 39.4537C19.2297 39.7738 19.7739 39.9383 20.3279 39.9229C21.3631 39.9229 21.9631 39.431 21.9631 38.7423C21.9631 38.0536 21.4906 37.7736 20.7105 37.6601L20.3354 37.6071C19.9979 37.5617 19.7279 37.4936 19.7279 37.2514C19.7279 37.0092 19.9829 36.8276 20.4104 36.8276C20.8056 36.8322 21.193 36.939 21.5356 37.1379L21.8806 36.5021ZM42.7743 36.1237C42.5841 36.1181 42.3959 36.1643 42.2296 36.2576C42.0632 36.3508 41.9249 36.4876 41.8292 36.6535V36.2146H41.0566V39.8321H41.8367V37.8039C41.8367 37.206 42.0917 36.873 42.5868 36.873C42.7536 36.8707 42.9193 36.9015 43.0743 36.9638L43.3144 36.207C43.1362 36.1427 42.9485 36.1094 42.7593 36.1086L42.7743 36.1237ZM32.7231 38.0158C32.7139 38.27 32.7573 38.5234 32.8506 38.7597C32.944 38.996 33.0852 39.21 33.2652 39.3881C33.4452 39.5662 33.6602 39.7044 33.8962 39.7939C34.1322 39.8834 34.3841 39.9222 34.6359 39.9078C35.1042 39.9318 35.5645 39.7779 35.926 39.4764L35.551 38.8407C35.2813 39.0482 34.9525 39.1623 34.6133 39.1661C34.325 39.1426 34.056 39.0104 33.8599 38.7958C33.6637 38.5813 33.5548 38.3001 33.5548 38.0082C33.5548 37.7163 33.6637 37.4351 33.8599 37.2206C34.056 37.006 34.325 36.8738 34.6133 36.8503C34.9525 36.8541 35.2813 36.9682 35.551 37.1757L35.926 36.54C35.5645 36.2385 35.1042 36.0846 34.6359 36.1086C34.3841 36.0942 34.1322 36.133 33.8962 36.2225C33.6602 36.312 33.4452 36.4502 33.2652 36.6283C33.0852 36.8064 32.944 37.0204 32.8506 37.2567C32.7573 37.493 32.7139 37.7464 32.7231 38.0006V38.0158ZM40.029 38.0158V36.2146H39.2489V36.6535C39.1164 36.4815 38.9453 36.3438 38.7497 36.2517C38.554 36.1596 38.3395 36.1157 38.1238 36.1237C37.6264 36.1237 37.1494 36.3231 36.7978 36.6779C36.4461 37.0327 36.2485 37.514 36.2485 38.0158C36.2485 38.5176 36.4461 38.9988 36.7978 39.3536C37.1494 39.7085 37.6264 39.9078 38.1238 39.9078C38.3395 39.9158 38.554 39.872 38.7497 39.7799C38.9453 39.6878 39.1164 39.55 39.2489 39.378V39.817H40.029V38.0158ZM37.1261 38.0158C37.1386 37.8028 37.2125 37.5982 37.3387 37.4271C37.465 37.256 37.638 37.1259 37.8366 37.0528C38.0352 36.9797 38.2507 36.9667 38.4565 37.0156C38.6623 37.0645 38.8494 37.173 38.9948 37.3279C39.1403 37.4827 39.2376 37.677 39.275 37.887C39.3123 38.097 39.288 38.3133 39.205 38.5095C39.1219 38.7057 38.9839 38.8731 38.8078 38.9911C38.6317 39.1091 38.4252 39.1726 38.2138 39.1737C38.0653 39.1756 37.918 39.1465 37.7812 39.0881C37.6444 39.0298 37.521 38.9436 37.4189 38.8348C37.3167 38.726 37.238 38.5971 37.1876 38.4562C37.1372 38.3152 37.1163 38.1653 37.1261 38.0158ZM27.7125 36.1237C27.2152 36.1308 26.741 36.3368 26.3943 36.6966C26.0475 37.0564 25.8566 37.5405 25.8636 38.0423C25.8705 38.5441 26.0748 39.0225 26.4314 39.3724C26.788 39.7222 27.2677 39.9148 27.7651 39.9078C28.3046 39.9357 28.8353 39.7604 29.254 39.4159L28.8789 38.8331C28.5828 39.0728 28.2159 39.2059 27.8363 39.2115C27.5785 39.2339 27.3221 39.1539 27.1218 38.9886C26.9215 38.8232 26.793 38.5855 26.7637 38.3261H29.4265C29.4265 38.2277 29.4265 38.1293 29.4265 38.0233C29.4265 36.8881 28.7289 36.1313 27.7238 36.1313L27.7125 36.1237ZM27.7125 36.8276C27.8293 36.8251 27.9454 36.8458 28.0542 36.8885C28.1629 36.9313 28.2623 36.9953 28.3466 37.0768C28.4309 37.1583 28.4984 37.2558 28.5454 37.3637C28.5923 37.4716 28.6177 37.5877 28.6202 37.7055H26.7449C26.7585 37.4626 26.8658 37.2347 27.0439 37.0706C27.2219 36.9065 27.4565 36.8193 27.6975 36.8276H27.7125ZM47.2561 38.0233V34.7615H46.506V36.6535C46.3735 36.4815 46.2024 36.3438 46.0068 36.2517C45.8111 36.1596 45.5966 36.1157 45.3808 36.1237C44.8835 36.1237 44.4065 36.3231 44.0549 36.6779C43.7032 37.0327 43.5056 37.514 43.5056 38.0158C43.5056 38.5176 43.7032 38.9988 44.0549 39.3536C44.4065 39.7085 44.8835 39.9078 45.3808 39.9078C45.5966 39.9158 45.8111 39.872 46.0068 39.7799C46.2024 39.6878 46.3735 39.55 46.506 39.378V39.817H47.2561V38.0233ZM48.5575 39.3061C48.6062 39.3055 48.6546 39.3145 48.7 39.3326C48.7431 39.3504 48.7825 39.376 48.8162 39.4083C48.8492 39.4409 48.8759 39.4794 48.895 39.5218C48.914 39.566 48.9238 39.6137 48.9238 39.6618C48.9238 39.71 48.914 39.7577 48.895 39.8018C48.8759 39.8443 48.8492 39.8827 48.8162 39.9154C48.7825 39.9477 48.7431 39.9733 48.7 39.9911C48.6551 40.011 48.6065 40.0214 48.5575 40.0213C48.4864 40.0208 48.4169 39.9999 48.3571 39.961C48.2974 39.9221 48.2498 39.8669 48.2199 39.8018C48.2012 39.7576 48.1915 39.71 48.1915 39.6618C48.1915 39.6137 48.2012 39.5661 48.2199 39.5218C48.239 39.4794 48.2657 39.4409 48.2987 39.4083C48.3325 39.376 48.3719 39.3504 48.415 39.3326C48.4638 39.313 48.5162 39.304 48.5687 39.3061H48.5575ZM48.5575 39.9456C48.5949 39.9459 48.632 39.9381 48.6662 39.9229C48.6985 39.9084 48.7278 39.8879 48.7525 39.8624C48.7994 39.8107 48.8254 39.7432 48.8254 39.6732C48.8254 39.6031 48.7994 39.5356 48.7525 39.484C48.7278 39.4584 48.6985 39.4379 48.6662 39.4234C48.6319 39.4084 48.5949 39.4006 48.5575 39.4007C48.5201 39.4009 48.4831 39.4087 48.4487 39.4234C48.415 39.4374 48.3844 39.458 48.3587 39.484C48.3118 39.5356 48.2858 39.6031 48.2858 39.6732C48.2858 39.7432 48.3118 39.8107 48.3587 39.8624C48.3845 39.8883 48.4151 39.9089 48.4487 39.9229C48.4865 39.9394 48.5275 39.9472 48.5687 39.9456H48.5575ZM48.58 39.4953C48.615 39.4936 48.6495 39.5043 48.6775 39.5256C48.689 39.5352 48.698 39.5474 48.7039 39.5612C48.7098 39.575 48.7123 39.5901 48.7112 39.6051C48.7118 39.6176 48.7097 39.6302 48.7052 39.6419C48.7007 39.6536 48.6938 39.6643 48.685 39.6732C48.6632 39.6931 48.6355 39.7051 48.6062 39.7072L48.715 39.8321H48.6287L48.5275 39.7072H48.4937V39.8321H48.4225V39.4991L48.58 39.4953ZM48.4975 39.5597V39.6505H48.58C48.5947 39.6549 48.6103 39.6549 48.625 39.6505C48.6276 39.6452 48.629 39.6394 48.629 39.6335C48.629 39.6275 48.6276 39.6217 48.625 39.6164C48.6276 39.6111 48.629 39.6053 48.629 39.5994C48.629 39.5935 48.6276 39.5877 48.625 39.5824C48.6103 39.578 48.5947 39.578 48.58 39.5824L48.4975 39.5597ZM44.372 38.0233C44.3844 37.8104 44.4583 37.6058 44.5846 37.4347C44.7108 37.2636 44.8839 37.1334 45.0825 37.0603C45.2811 36.9872 45.4966 36.9743 45.7023 37.0232C45.9081 37.0721 46.0953 37.1806 46.2407 37.3354C46.3861 37.4903 46.4835 37.6846 46.5208 37.8946C46.5582 38.1045 46.5338 38.3209 46.4508 38.5171C46.3678 38.7133 46.2297 38.8807 46.0536 38.9987C45.8775 39.1167 45.671 39.1802 45.4596 39.1813C45.3111 39.1832 45.1638 39.154 45.027 39.0957C44.8902 39.0374 44.7669 38.9511 44.6647 38.8424C44.5626 38.7336 44.4838 38.6047 44.4334 38.4637C44.3831 38.3228 44.3621 38.1728 44.372 38.0233ZM18.0327 38.0233V36.2146H17.2526V36.6535C17.1201 36.4815 16.949 36.3438 16.7534 36.2517C16.5577 36.1596 16.3432 36.1157 16.1275 36.1237C15.6301 36.1237 15.1531 36.3231 14.8015 36.6779C14.4498 37.0327 14.2522 37.514 14.2522 38.0158C14.2522 38.5176 14.4498 38.9988 14.8015 39.3536C15.1531 39.7085 15.6301 39.9078 16.1275 39.9078C16.3432 39.9158 16.5577 39.872 16.7534 39.7799C16.949 39.6878 17.1201 39.55 17.2526 39.378V39.817H18.0327V38.0233ZM15.1298 38.0233C15.1423 37.8104 15.2162 37.6058 15.3424 37.4347C15.4686 37.2636 15.6417 37.1334 15.8403 37.0603C16.0389 36.9872 16.2544 36.9743 16.4602 37.0232C16.666 37.0721 16.8531 37.1806 16.9985 37.3354C17.144 37.4903 17.2413 37.6846 17.2787 37.8946C17.316 38.1045 17.2917 38.3209 17.2087 38.5171C17.1256 38.7133 16.9876 38.8807 16.8115 38.9987C16.6354 39.1167 16.4289 39.1802 16.2175 39.1813C16.0683 39.1842 15.9202 39.1559 15.7825 39.098C15.6449 39.0402 15.5206 38.9541 15.4176 38.8452C15.3147 38.7363 15.2352 38.607 15.1844 38.4656C15.1336 38.3241 15.1124 38.1735 15.1223 38.0233H15.1298Z" fill="black"/>
<path d="M33.4315 8.64648H21.6177V30.0681H33.4315V8.64648Z" fill="#FF5F00"/>
<path d="M22.3676 19.3596C22.3655 17.2963 22.8286 15.2595 23.7221 13.4035C24.6155 11.5475 25.9158 9.9209 27.5245 8.64695C25.5327 7.06757 23.1406 6.08544 20.6218 5.81282C18.1029 5.5402 15.5589 5.98809 13.2804 7.10529C11.0019 8.2225 9.08085 9.96395 7.73687 12.1306C6.39289 14.2973 5.68018 16.8017 5.68018 19.3577C5.68018 21.9138 6.39289 24.4182 7.73687 26.5849C9.08085 28.7515 11.0019 30.493 13.2804 31.6102C15.5589 32.7274 18.1029 33.1753 20.6218 32.9027C23.1406 32.63 25.5327 31.6479 27.5245 30.0685C25.9163 28.795 24.6163 27.169 23.7229 25.3137C22.8295 23.4584 22.366 21.4223 22.3676 19.3596Z" fill="#EB001B"/>
<path d="M49.3702 19.3593C49.3701 21.9155 48.6573 24.4201 47.313 26.5868C45.9688 28.7536 44.0475 30.495 41.7687 31.612C39.4899 32.7291 36.9456 33.1767 34.4266 32.9037C31.9076 32.6306 29.5156 31.648 27.5239 30.0682C29.1315 28.7935 30.4311 27.1671 31.3248 25.3117C32.2184 23.4562 32.6828 21.4203 32.6828 19.3574C32.6828 17.2945 32.2184 15.2585 31.3248 13.4031C30.4311 11.5477 29.1315 9.92126 27.5239 8.64657C29.5156 7.06669 31.9076 6.08409 34.4266 5.81108C36.9456 5.53807 39.4899 5.98567 41.7687 7.10272C44.0475 8.21976 45.9688 9.96118 47.313 12.1279C48.6573 14.2946 49.3701 16.7993 49.3702 19.3555V19.3593Z" fill="#F79E1B"/>
<path d="M48.0806 27.7983V27.3594H48.2568V27.2686H47.8105V27.3594H48.0018V27.7983H48.0806ZM48.9469 27.7983V27.2686H48.8119L48.6544 27.647L48.4969 27.2686H48.3769V27.7983H48.4744V27.401L48.6206 27.7453H48.7219L48.8682 27.401V27.8021L48.9469 27.7983Z" fill="#F79E1B"/>
</svg>
