<svg width="136" height="25" viewBox="0 0 136 25" fill="none" xmlns="http://www.w3.org/2000/svg">
<g clip-path="url(#clip0)">
<path d="M135.582 8.86442C134.761 8.3238 133.628 8.04568 132.379 8.04568C130.392 8.04568 129.111 8.99525 129.111 10.5504C129.111 11.8275 130.064 12.6133 131.822 12.8585L132.626 12.9729C133.562 13.1037 134.006 13.3498 134.006 13.7916C134.006 14.3973 133.382 14.7412 132.216 14.7412C131.033 14.7412 130.179 14.3644 129.604 13.9225L128.799 15.2481C129.736 15.936 130.918 16.2627 132.199 16.2627C134.465 16.2627 135.779 15.1987 135.779 13.7094C135.779 12.3344 134.745 11.6136 133.037 11.3684L132.232 11.254C131.493 11.1552 130.902 11.0079 130.902 10.4846C130.902 9.91191 131.46 9.56795 132.396 9.56795C133.398 9.56795 134.367 9.94482 134.843 10.2394L135.582 8.86442ZM127.386 8.86442C126.565 8.3238 125.432 8.04568 124.184 8.04568C122.197 8.04568 120.915 8.99525 120.915 10.5504C120.915 11.8275 121.867 12.6133 123.625 12.8585L124.43 12.9729C125.366 13.1037 125.81 13.3498 125.81 13.7916C125.81 14.3973 125.186 14.7412 124.019 14.7412C122.837 14.7412 121.983 14.3644 121.408 13.9225L120.603 15.2481C121.539 15.936 122.722 16.2627 124.003 16.2627C126.269 16.2627 127.583 15.1987 127.583 13.7094C127.583 12.3344 126.549 11.6136 124.84 11.3684L124.036 11.254C123.297 11.1552 122.705 11.0079 122.705 10.4846C122.705 9.91191 123.263 9.56795 124.199 9.56795C125.202 9.56795 126.17 9.94482 126.647 10.2394L127.386 8.86442H127.386ZM107.826 12.1221C107.826 13.4971 106.922 14.6268 105.444 14.6268C104.031 14.6268 103.079 13.5464 103.079 12.1221C103.079 10.6977 104.031 9.61733 105.444 9.61733C106.923 9.61733 107.826 10.7463 107.826 12.1221ZM101.47 12.1221V18.8662H103.178V15.0852C103.72 15.7887 104.542 16.2314 105.658 16.2314C107.858 16.2314 109.583 14.5125 109.583 12.1229C109.583 9.73335 107.858 8.01441 105.658 8.01441C104.542 8.01441 103.72 8.45628 103.178 9.15982V8.21025H101.47V12.1221ZM112.589 12.1385C112.589 10.7636 113.493 9.63378 114.97 9.63378C116.383 9.63378 117.335 10.7142 117.335 12.1385C117.335 13.5629 116.382 14.6433 114.97 14.6433C113.493 14.6433 112.589 13.5143 112.589 12.1385ZM118.945 12.1385V8.22671H117.236V9.17628C116.695 8.47192 115.874 8.03005 114.756 8.03005C112.555 8.03005 110.831 9.74898 110.831 12.1385C110.831 14.5281 112.556 16.247 114.756 16.247C115.873 16.247 116.694 15.8052 117.236 15.1008V16.0504H118.945V12.1377V12.1385ZM62.0026 12.1385C62.0026 10.7636 62.9061 9.63378 64.3839 9.63378C65.7968 9.63378 66.7488 10.7142 66.7488 12.1385C66.7488 13.5629 65.7968 14.6433 64.3839 14.6433C62.9061 14.6433 62.0026 13.5143 62.0026 12.1385ZM68.3583 12.1385V8.22671H66.6501V9.17628C66.1078 8.47192 65.2866 8.03005 64.17 8.03005C61.9697 8.03005 60.245 9.74898 60.245 12.1385C60.245 14.5281 61.9697 16.247 64.17 16.247C65.2866 16.247 66.1078 15.8052 66.6501 15.1008V16.0504H68.3583V12.1377V12.1385ZM89.5451 9.55232C90.6452 9.55232 91.3521 10.2402 91.5323 11.4515H87.4591C87.6402 10.3217 88.3297 9.55232 89.5451 9.55232ZM89.578 8.03005C87.2789 8.03005 85.6694 9.69961 85.6694 12.1385C85.6694 14.6268 87.3448 16.247 89.6932 16.247C90.8756 16.247 91.9593 15.9525 92.9122 15.1502L92.0745 13.8896C91.4179 14.4137 90.5802 14.7075 89.7919 14.7075C88.691 14.7075 87.6895 14.2006 87.4435 12.7927H93.2742C93.2907 12.5796 93.3072 12.3673 93.3072 12.1377C93.2907 9.69879 91.7799 8.02922 89.5788 8.02922L89.578 8.03005ZM76.7999 8.84878C75.9787 8.30817 74.8457 8.03005 73.5974 8.03005C71.6102 8.03005 70.329 8.97962 70.329 10.5348C70.329 11.8119 71.2819 12.5977 73.0387 12.8429L73.8434 12.9573C74.7798 13.0881 75.2234 13.3333 75.2234 13.7752C75.2234 14.3808 74.5996 14.7248 73.4328 14.7248C72.2504 14.7248 71.3963 14.3479 70.8211 13.906L70.0164 15.2325C70.9528 15.9195 72.1352 16.2479 73.4164 16.2479C75.6825 16.2479 76.9966 15.1839 76.9966 13.6946C76.9966 12.3196 75.9623 11.5988 74.254 11.3535L73.4493 11.2392C72.7104 11.1404 72.1187 10.9931 72.1187 10.4698C72.1187 9.8971 72.6775 9.55314 73.6139 9.55314C74.6161 9.55314 75.5846 9.93001 76.061 10.2246L76.7999 8.84961V8.84878ZM98.8244 8.03005C97.8394 8.03005 97.1984 8.48837 96.7549 9.17628V8.22671H95.0631V16.0512H96.7714V11.6638C96.7714 10.3702 97.3292 9.65024 98.4467 9.65024C98.7914 9.65024 99.1527 9.69961 99.5139 9.8469L100.04 8.24234C99.662 8.09505 99.1691 8.02922 98.8244 8.02922V8.03005ZM84.2566 8.22671H81.4647V5.85278H79.74V8.22671H78.1469V9.7819H79.74V13.3498C79.74 15.1666 80.446 16.247 82.4669 16.247C83.2058 16.247 84.06 16.0175 84.6022 15.6414L84.1093 14.1841C83.6 14.4787 83.0413 14.626 82.5977 14.626C81.7436 14.626 81.4647 14.1019 81.4647 13.3169V9.78107H84.2566V8.22589V8.22671ZM58.7343 16.0512V11.1404C58.7343 9.29065 57.5518 8.0465 55.6461 8.03005C54.6439 8.01359 53.6095 8.32463 52.8871 9.42149C52.3448 8.5542 51.4907 8.03005 50.2918 8.03005C49.4541 8.03005 48.6329 8.27526 47.9919 9.19273V8.22671H46.2837V16.0512H48.0084V11.7131C48.0084 10.3546 48.7638 9.63461 49.9306 9.63461C51.0636 9.63461 51.6388 10.3711 51.6388 11.6967V16.0512H53.3635V11.7131C53.3635 10.3546 54.1518 9.63461 55.2849 9.63461C56.4508 9.63461 57.0096 10.3711 57.0096 11.6967V16.0512H58.7343Z" fill="white"/>
<path d="M14.1611 21.3658H24.4912V2.86401H14.1611V21.3658Z" fill="#FF5F00"/>
<path d="M14.8166 12.1147C14.8166 8.36082 16.5799 5.0184 19.3258 2.86336C17.3172 1.2876 14.7836 0.3479 12.0296 0.3479C5.50929 0.3479 0.224121 5.61579 0.224121 12.1147C0.224121 18.6135 5.50929 23.8814 12.0296 23.8814C14.7836 23.8814 17.3172 22.9417 19.3258 21.366C16.5799 19.2118 14.8166 15.8685 14.8166 12.1147Z" fill="#EC001B"/>
<path d="M38.4278 12.1147C38.4278 18.6135 33.1427 23.8814 26.6224 23.8814C23.8683 23.8814 21.3339 22.9417 19.3262 21.366C22.072 19.2118 23.8354 15.8685 23.8354 12.1147C23.8354 8.36082 22.072 5.0184 19.3262 2.86336C21.3339 1.2876 23.8683 0.3479 26.6224 0.3479C33.1418 0.3479 38.4278 5.61579 38.4278 12.1147Z" fill="#F89E1B"/>
</g>
<defs>
<clipPath id="clip0">
<rect width="135.779" height="23.8627" fill="white" transform="translate(0.221191 0.3479)"/>
</clipPath>
</defs>
</svg>
