<svg width="66" height="13" viewBox="0 0 66 13" fill="none" xmlns="http://www.w3.org/2000/svg">
<path d="M19.5362 5.71053C19.0157 6.02478 18.3996 6.12953 17.0717 6.12953H16.5087V9.65967H14.7666V0.378662H17.093C18.3358 0.378662 18.9626 0.493889 19.4937 0.808144C20.3117 1.30048 20.7684 2.18039 20.7684 3.23839C20.7684 4.29638 20.301 5.24962 19.5362 5.71053ZM17.093 2.02326H16.5087V4.48493H17.0186C18.5802 4.48493 19.0157 4.06592 19.0157 3.26981C19.0157 2.28514 18.4314 2.02326 17.093 2.02326Z" fill="white"/>
<path d="M27.1736 9.65961V8.75873C26.4937 9.51295 25.8245 9.82721 24.8366 9.82721C22.7758 9.82721 21.2886 8.30829 21.2886 6.21323C21.2886 4.08674 22.7864 2.54688 24.8791 2.54688C25.8988 2.54688 26.5999 2.87161 27.1842 3.63631V2.704H28.7351V9.65961H27.1736ZM25.049 4.07627C23.838 4.07627 22.9882 4.97715 22.9882 6.24466C22.9882 7.45979 23.838 8.28734 25.0809 8.28734C26.3662 8.28734 27.1311 7.38647 27.1311 6.22371C27.1205 4.96667 26.26 4.07627 25.049 4.07627Z" fill="white"/>
<path d="M32.1133 5.79419V9.65955H30.4243V2.704H31.9752V3.38489C32.4214 2.7459 32.7719 2.54688 33.5049 2.54688H33.6324V4.14958C32.6126 4.17053 32.1133 4.71524 32.1133 5.79419Z" fill="white"/>
<path d="M40.2712 9.65961V8.75873C39.5914 9.51295 38.9221 9.82721 37.9342 9.82721C35.8734 9.82721 34.3862 8.30829 34.3862 6.21323C34.3862 4.08674 35.884 2.54688 37.9767 2.54688C38.9965 2.54688 39.6976 2.87161 40.2818 3.63631V2.704H41.8328V9.65961H40.2712ZM38.1467 4.07627C36.9357 4.07627 36.0859 4.97715 36.0859 6.24466C36.0859 7.45979 36.9357 8.28734 38.1785 8.28734C39.4639 8.28734 40.2287 7.38647 40.2287 6.22371C40.2181 4.96667 39.3577 4.07627 38.1467 4.07627Z" fill="white"/>
<path d="M46.5493 12.4355C44.8178 12.4355 43.4899 11.6185 42.9163 10.2253H44.839C45.3383 10.77 45.8163 10.969 46.613 10.969C47.8771 10.969 48.5251 10.2357 48.5888 8.74825C47.9302 9.51294 47.261 9.8272 46.2731 9.8272C44.2654 9.8272 42.8101 8.28733 42.8101 6.1399C42.8101 4.07627 44.2866 2.54688 46.2837 2.54688C47.3035 2.54688 48.0683 2.88208 48.5888 3.58393V2.704H50.2035V8.33971C50.2035 11.3252 48.7376 12.4355 46.5493 12.4355ZM46.4749 4.07627C45.2958 4.07627 44.5097 4.92477 44.5097 6.21323C44.5097 7.48074 45.2852 8.29781 46.4962 8.29781C47.7071 8.29781 48.5039 7.47026 48.5039 6.21323C48.5145 4.93524 47.6859 4.07627 46.4749 4.07627Z" fill="white"/>
<path d="M54.9843 9.81689C52.9235 9.81689 51.2451 8.18276 51.2451 6.17151C51.2451 4.17074 52.9235 2.52612 54.9737 2.52612C57.0983 2.52612 58.7448 4.14979 58.7448 6.21341C58.7448 8.19323 57.0345 9.81689 54.9843 9.81689ZM54.9843 4.07646C53.8796 4.07646 52.9448 5.01923 52.9448 6.16103C52.9448 7.35521 53.8477 8.29798 54.9949 8.29798C56.1103 8.29798 57.0345 7.35521 57.0345 6.19246C57.0345 5.02971 56.121 4.07646 54.9843 4.07646Z" fill="white"/>
<path d="M64.3003 9.65957V6.25511C64.3003 4.40099 63.7904 4.06579 62.9512 4.06579C62.4201 4.06579 61.9739 4.29624 61.7084 4.70478C61.4959 5.03998 61.4322 5.44852 61.4322 6.37034V9.64909H59.7432V2.704H61.3047V3.37442C61.9315 2.78781 62.4838 2.54688 63.2912 2.54688C64.2685 2.54688 65.0333 2.90303 65.4901 3.5525C65.8725 4.09721 66 4.6943 66 5.94086V9.67004H64.3003V9.65957Z" fill="white"/>
<path d="M8.90288 4.99822L7.73438 6.9885L9.13658 9.37683L11.6967 4.99822L9.13658 0.609131L7.745 3.00794L8.90288 4.99822Z" fill="white"/>
<path d="M4.67505 2.58903H7.00143L8.40363 0.190186H3.27285L0.702148 4.56885L3.49593 4.60028L4.67505 2.58903Z" fill="white"/>
<path d="M4.67468 7.40774L3.52743 5.43841L0.712402 5.40698L3.27248 9.78561L8.40326 9.79608L7.00106 7.40774H4.67468Z" fill="white"/>
</svg>
