<svg width="118" height="31" viewBox="0 0 118 31" fill="none" xmlns="http://www.w3.org/2000/svg">
<path d="M43.9749 6.33984H37.4668C37.2513 6.33971 37.0429 6.41554 36.8791 6.55367C36.7153 6.6918 36.6068 6.88315 36.5732 7.09324L33.9411 23.5674C33.929 23.6438 33.9338 23.722 33.9552 23.7964C33.9766 23.8708 34.0141 23.9398 34.0652 23.9985C34.1162 24.0573 34.1795 24.1044 34.2507 24.1367C34.3219 24.169 34.3994 24.1856 34.4778 24.1855H37.5848C37.8004 24.1856 38.0089 24.1096 38.1728 23.9713C38.3366 23.833 38.445 23.6414 38.4784 23.4312L39.1883 18.9878C39.2216 18.7777 39.3298 18.5863 39.4935 18.448C39.6572 18.3097 39.8655 18.2336 40.0809 18.2335H42.1411C46.4281 18.2335 48.9023 16.1856 49.5485 12.1275C49.8397 10.352 49.5608 8.957 48.7187 7.98003C47.7937 6.90724 46.1531 6.33984 43.9749 6.33984ZM44.7257 12.3567C44.3698 14.6619 42.5855 14.6619 40.8603 14.6619H39.8782L40.5672 10.3567C40.5873 10.2307 40.6524 10.116 40.7506 10.0332C40.8488 9.95036 40.9737 9.90485 41.1029 9.90484H41.553C42.7283 9.90484 43.8369 9.90484 44.4098 10.5662C44.7514 10.9607 44.8561 11.5469 44.7257 12.3567ZM63.4287 12.2825H60.3122C60.183 12.2825 60.0581 12.328 59.9598 12.4108C59.8616 12.4936 59.7966 12.6083 59.7764 12.7343L59.6384 13.5948L59.4205 13.2829C58.7458 12.3163 57.2413 11.9931 55.7397 11.9931C52.2958 11.9931 49.3544 14.568 48.7815 18.18C48.4836 19.9817 48.9071 21.7046 49.9424 22.9061C50.8922 24.0108 52.2511 24.4711 53.8678 24.4711C56.6428 24.4711 58.1815 22.7097 58.1815 22.7097L58.0426 23.5646C58.0302 23.641 58.0347 23.7192 58.0559 23.7937C58.0771 23.8682 58.1144 23.9373 58.1652 23.9963C58.216 24.0552 58.2792 24.1025 58.3504 24.1351C58.4215 24.1676 58.499 24.1845 58.5774 24.1846H61.3846C61.6002 24.1847 61.8088 24.1087 61.9726 23.9704C62.1365 23.8321 62.2448 23.6405 62.2782 23.4302L63.9626 12.9006C63.975 12.8243 63.9704 12.7463 63.9493 12.6719C63.9282 12.5976 63.8909 12.5286 63.8402 12.4698C63.7894 12.4111 63.7263 12.3639 63.6553 12.3315C63.5843 12.2992 63.5069 12.2824 63.4287 12.2825ZM59.0846 18.2701C58.7839 20.0278 57.3707 21.2076 55.5684 21.2076C54.6634 21.2076 53.9402 20.9211 53.4758 20.3781C53.0152 19.8389 52.8401 19.0715 52.9867 18.2166C53.2674 16.474 54.7043 15.2556 56.4791 15.2556C57.3641 15.2556 58.0835 15.5459 58.5574 16.0936C59.0323 16.6469 59.2207 17.4191 59.0846 18.2701ZM80.0267 12.2825H76.895C76.7473 12.2827 76.6019 12.3185 76.4714 12.3867C76.3409 12.455 76.2292 12.5537 76.1461 12.6742L71.8267 18.955L69.9958 12.9194C69.9396 12.7353 69.8248 12.5739 69.6685 12.4592C69.5122 12.3445 69.3227 12.2825 69.1279 12.2825H66.0504C65.964 12.2822 65.8788 12.3024 65.8019 12.3412C65.725 12.38 65.6586 12.4365 65.6082 12.5057C65.5579 12.575 65.525 12.6552 65.5124 12.7396C65.4997 12.8239 65.5077 12.91 65.5356 12.9908L68.9852 22.984L65.7421 27.5035C65.6844 27.5836 65.6503 27.6778 65.6433 27.7759C65.6363 27.8739 65.6568 27.9719 65.7024 28.0592C65.7481 28.1465 65.8173 28.2198 65.9023 28.2709C65.9874 28.3219 66.085 28.3489 66.1846 28.3489H69.3125C69.4586 28.3491 69.6025 28.3143 69.7319 28.2476C69.8614 28.1808 69.9725 28.0841 70.0557 27.9656L80.4721 13.1232C80.5286 13.0429 80.5617 12.9489 80.5678 12.8513C80.574 12.7538 80.553 12.6564 80.5072 12.5698C80.4613 12.4832 80.3922 12.4106 80.3076 12.3599C80.2229 12.3093 80.1258 12.2825 80.0267 12.2825Z" fill="#253B80"/>
<path d="M90.3954 6.34005H83.8864C83.6711 6.34014 83.4629 6.41607 83.2993 6.55418C83.1357 6.69229 83.0273 6.88352 82.9938 7.09344L80.3616 23.5676C80.3494 23.6439 80.3541 23.7219 80.3753 23.7963C80.3966 23.8707 80.4339 23.9396 80.4847 23.9983C80.5356 24.0571 80.5987 24.1043 80.6698 24.1366C80.7408 24.169 80.8182 24.1857 80.8965 24.1857H84.2366C84.3873 24.1855 84.533 24.1322 84.6474 24.0354C84.7618 23.9387 84.8375 23.8047 84.8609 23.6578L85.6079 18.9881C85.6412 18.7779 85.7495 18.5865 85.9131 18.4482C86.0768 18.3099 86.2851 18.2338 86.5005 18.2337H88.5598C92.8478 18.2337 95.321 16.1858 95.9681 12.1277C96.2602 10.3522 95.9795 8.9572 95.1373 7.98023C94.2133 6.90744 92.5737 6.34005 90.3954 6.34005ZM91.1463 12.3569C90.7913 14.6621 89.007 14.6621 87.2808 14.6621H86.2997L86.9896 10.3569C87.0094 10.2309 87.0742 10.1161 87.1723 10.0333C87.2704 9.95037 87.3953 9.90489 87.5244 9.90505H87.9745C89.1488 9.90505 90.2584 9.90505 90.8313 10.5664C91.1729 10.9609 91.2766 11.5471 91.1463 12.3569ZM109.848 12.2827H106.734C106.605 12.2823 106.479 12.3277 106.381 12.4106C106.283 12.4935 106.218 12.6085 106.199 12.7345L106.061 13.595L105.842 13.2831C105.167 12.3165 103.664 11.9933 102.162 11.9933C98.7183 11.9933 95.7778 14.5682 95.2049 18.1802C94.908 19.9819 95.3296 21.7048 96.3649 22.9063C97.3165 24.011 98.6735 24.4713 100.29 24.4713C103.065 24.4713 104.604 22.7099 104.604 22.7099L104.465 23.5648C104.453 23.6414 104.457 23.7197 104.479 23.7944C104.5 23.869 104.537 23.9382 104.588 23.9972C104.639 24.0561 104.703 24.1035 104.774 24.1359C104.846 24.1682 104.923 24.1849 105.002 24.1848H107.808C108.023 24.1847 108.232 24.1086 108.395 23.9703C108.559 23.832 108.667 23.6405 108.701 23.4304L110.386 12.9008C110.398 12.8243 110.393 12.7461 110.371 12.6717C110.35 12.5973 110.312 12.5283 110.261 12.4696C110.21 12.4109 110.147 12.3638 110.075 12.3315C110.004 12.2992 109.927 12.2826 109.848 12.2827ZM105.504 18.2704C105.205 20.028 103.79 21.2078 101.988 21.2078C101.085 21.2078 100.36 20.9213 99.8954 20.3784C99.4348 19.8391 99.2616 19.0717 99.4063 18.2168C99.6889 16.4742 101.124 15.2558 102.899 15.2558C103.784 15.2558 104.503 15.5461 104.977 16.0938C105.454 16.6471 105.642 17.4193 105.504 18.2704ZM113.522 6.7919L110.851 23.5676C110.839 23.6439 110.844 23.7219 110.865 23.7963C110.886 23.8707 110.924 23.9396 110.974 23.9983C111.025 24.0571 111.088 24.1043 111.159 24.1366C111.231 24.169 111.308 24.1857 111.386 24.1857H114.072C114.518 24.1857 114.897 23.8663 114.965 23.4314L117.599 6.95817C117.611 6.88181 117.607 6.80374 117.586 6.72933C117.564 6.65492 117.527 6.58594 117.476 6.52711C117.425 6.46829 117.362 6.42103 117.291 6.38858C117.22 6.35612 117.143 6.33925 117.064 6.33911H114.057C113.928 6.33956 113.803 6.38538 113.705 6.46834C113.607 6.55131 113.543 6.66601 113.522 6.7919Z" fill="#179BD7"/>
<path d="M6.91452 27.3871L7.41222 24.2664L6.30359 24.241H1.00977L4.6887 1.21368C4.69965 1.14332 4.73585 1.07919 4.7907 1.03297C4.84555 0.98676 4.9154 0.961543 4.98751 0.961918H13.9136C16.877 0.961918 18.922 1.57065 19.9897 2.77213C20.4902 3.33577 20.809 3.92477 20.9632 4.57295C21.125 5.25307 21.1278 6.06565 20.9698 7.05671L20.9584 7.12904V7.76407L21.459 8.04401C21.8411 8.23512 22.1846 8.49364 22.4724 8.8068C22.9007 9.28871 23.1776 9.90119 23.2946 10.6273C23.4155 11.3742 23.3755 12.2628 23.1776 13.2689C22.9492 14.4263 22.58 15.4342 22.0813 16.259C21.6414 16.9979 21.0498 17.6378 20.3446 18.1378C19.6823 18.6019 18.8953 18.9541 18.0056 19.1796C17.1434 19.4013 16.1604 19.5131 15.0822 19.5131H14.3875C13.8908 19.5131 13.4083 19.6897 13.0296 20.0063C12.6514 20.3262 12.4005 20.7683 12.3216 21.2538L12.2692 21.5346L11.39 27.0348L11.35 27.2368C11.3395 27.3006 11.3214 27.3326 11.2948 27.3542C11.269 27.375 11.2368 27.3866 11.2034 27.3871H6.91452Z" fill="#253B80"/>
<path d="M21.933 7.20239C21.9064 7.37054 21.8759 7.54245 21.8417 7.71906C20.6645 13.6852 16.6373 15.7462 11.4938 15.7462H8.87499C8.24597 15.7462 7.71592 16.1971 7.6179 16.8096L6.27708 25.204L5.89739 27.5835C5.88226 27.6779 5.88804 27.7744 5.91432 27.8663C5.94059 27.9583 5.98675 28.0436 6.0496 28.1162C6.11246 28.1889 6.19052 28.2473 6.27842 28.2873C6.36632 28.3273 6.46196 28.3481 6.55876 28.3482H11.2036C11.7536 28.3482 12.2209 27.9536 12.3075 27.4182L12.3531 27.1852L13.2277 21.7066L13.2838 21.406C13.3695 20.8687 13.8376 20.4742 14.3877 20.4742H15.0824C19.5825 20.4742 23.1054 18.6705 24.135 13.4512C24.5652 11.2709 24.3425 9.45036 23.2044 8.16997C22.8436 7.77388 22.4128 7.446 21.933 7.20239Z" fill="#179BD7"/>
<path d="M20.7014 6.71772C20.3255 6.61038 19.9432 6.52661 19.5566 6.4669C18.7928 6.35102 18.0208 6.29542 17.248 6.30063H10.2517C9.98548 6.30042 9.72794 6.39426 9.52566 6.56517C9.32338 6.73608 9.18971 6.97279 9.14882 7.23251L7.6605 16.5381L7.61768 16.8096C7.66404 16.5134 7.81628 16.2433 8.04686 16.0483C8.27743 15.8532 8.57111 15.7461 8.87476 15.7462H11.4936C16.6371 15.7462 20.6643 13.6843 21.8414 7.71911C21.8766 7.54251 21.9061 7.3706 21.9328 7.20245C21.6222 7.04165 21.2984 6.90684 20.965 6.79945C20.8776 6.77081 20.7897 6.74357 20.7014 6.71772Z" fill="#222D65"/>
<path d="M9.14872 7.23239C9.18927 6.9726 9.32286 6.73578 9.52524 6.56496C9.72763 6.39413 9.98536 6.30064 10.2516 6.30145H17.2479C18.0768 6.30145 18.8504 6.355 19.5565 6.46773C20.0343 6.54186 20.5055 6.65273 20.9659 6.79933C21.3132 6.913 21.6358 7.04733 21.9336 7.20233C22.2838 4.99758 21.9308 3.49642 20.7232 2.13712C19.3919 0.640667 16.9891 0 13.9144 0H4.98827C4.3602 0 3.82445 0.450909 3.72738 1.06433L0.00943021 24.3284C-0.00788739 24.4364 -0.00129863 24.5469 0.0287432 24.6521C0.0587851 24.7574 0.111567 24.855 0.183459 24.9382C0.25535 25.0214 0.344645 25.0882 0.4452 25.1341C0.545756 25.18 0.655186 25.2038 0.765962 25.2039H6.27675L7.6604 16.538L9.14872 7.23239Z" fill="#253B80"/>
</svg>
