<svg width="31" height="38" viewBox="0 0 31 38" fill="none" xmlns="http://www.w3.org/2000/svg">
<path d="M25.0575 33.328C25.2774 34.1297 25.4972 34.9513 25.7307 35.7729C25.8406 36.1787 25.978 36.5746 26.0604 36.9805C26.1978 37.6338 25.7857 38 24.8652 38C18.6418 38 12.4046 38 6.18118 38C5.16455 38 4.7524 37.614 4.95848 36.8617C5.23324 35.8421 5.53548 34.8325 5.81025 33.813C5.85146 33.6546 5.89268 33.4962 5.94763 33.2488C5.01343 33.2488 4.13418 33.2488 3.2412 33.2488C2.58176 33.2488 1.90858 33.2587 1.24915 33.2488C0.369901 33.2389 -0.0834617 32.9023 0.0127061 32.2886C0.191303 30.9622 0.397377 29.6358 0.589713 28.3095C0.891954 26.2407 1.1942 24.1818 1.49644 22.113C1.85363 19.6879 2.21083 17.2628 2.55428 14.8377C2.89774 12.4423 3.22746 10.0469 3.57091 7.66137C3.7083 6.74082 3.83194 5.83016 3.98306 4.90961C4.06549 4.43449 4.49138 4.17713 5.2195 4.16723C6.13997 4.15733 7.04669 4.14743 7.96715 4.16723C8.43425 4.17713 8.58538 4.05835 8.65407 3.7317C8.8464 2.74186 9.10743 1.75202 9.32724 0.762178C9.45088 0.227663 9.82182 0 10.6049 0C13.8746 0 17.158 0 20.4277 0C21.1971 0 21.5543 0.227663 21.6779 0.781975C21.9115 1.77182 22.1588 2.76166 22.3511 3.7515C22.4198 4.09794 22.6259 4.17713 23.0655 4.16723C23.9585 4.14743 24.8515 4.15733 25.7445 4.16723C26.5687 4.17713 26.9534 4.43449 27.0358 5.02839C27.6678 9.354 28.3135 13.6796 28.9317 18.0052C29.5087 21.9547 30.0583 25.9041 30.6215 29.8536C30.7314 30.6257 30.8551 31.3879 30.9787 32.1599C31.1024 32.8924 30.6902 33.2587 29.6599 33.2587C28.1899 33.2686 26.7336 33.2587 25.2636 33.2686C25.2224 33.2686 25.1812 33.2884 25.0575 33.328ZM2.33447 31.6452C10.8934 31.7937 28.6432 31.6452 28.6432 31.6452C28.5333 30.8632 28.1074 27.8838 28.025 27.181C27.8739 25.8744 27.8876 25.8744 26.1703 25.528C22.5022 24.7955 18.7654 24.3501 14.9737 24.1521C11.3742 23.9542 7.76108 23.8552 4.16166 23.7166C3.84568 23.7067 3.46101 23.6176 3.40605 24.0234C3.29615 25.0331 2.48559 30.5564 2.33447 31.6452ZM27.5854 24.1521C27.4205 23.0435 26.816 18.8227 26.7061 17.8131C26.6787 17.526 26.5413 17.4072 26.1703 17.3478C24.3844 17.0806 22.0763 16.8966 20.2766 16.7481C16.1689 16.4017 12.0474 16.1344 7.92594 15.8771C6.86809 15.8078 5.79651 15.8672 4.69745 15.8672C4.53259 16.9956 3.87315 20.945 3.7083 22.0933C11.2918 22.2318 20.1942 22.7465 27.5854 24.1521ZM5.67287 8.53243C5.49427 9.74004 5.12334 13.0461 4.95848 14.2141C12.0337 14.3527 19.5348 14.5169 26.4176 15.7443C26.2802 14.7841 25.7719 11.8781 25.7032 10.9575C25.662 10.423 25.4422 10.1657 24.6729 10.0766C21.1421 9.70044 17.6389 9.22532 14.1082 8.92837C11.3605 8.7007 8.58538 8.66111 5.67287 8.53243ZM7.34893 36.3767C12.8168 36.3767 18.2159 36.3767 23.6562 36.3767C23.354 35.3076 23.0655 34.298 22.777 33.2884C17.8999 33.2884 13.0778 33.2884 8.21444 33.2884C7.92594 34.3277 7.63744 35.3472 7.34893 36.3767ZM25.3323 8.56213C25.2087 7.73066 25.0713 6.99818 25.0163 6.2558C24.9888 5.84996 24.7965 5.74108 24.247 5.74108C20.73 5.77077 17.1993 5.77077 13.6823 5.77077C11.4155 5.77077 9.14864 5.77077 6.89557 5.73118C6.27735 5.72128 5.94763 5.81037 6.00258 6.31519C6.03006 6.52305 5.96137 6.73092 5.92015 6.98828C12.4321 7.13675 18.8616 7.4931 25.3323 8.56213ZM11.3742 1.59364C11.1819 2.43501 10.9896 3.27637 10.7835 4.11774C13.957 4.11774 17.0619 4.11774 20.2079 4.11774C20.0019 3.25658 19.8095 2.42511 19.6172 1.59364C16.8558 1.59364 14.1494 1.59364 11.3742 1.59364Z" fill="black"/>
</svg>
