<svg width="19" height="19" viewBox="0 0 19 19" fill="none" xmlns="http://www.w3.org/2000/svg">
<path d="M18.7899 16.6705L14.8571 12.7395C14.7114 12.5939 14.7114 12.4483 14.7843 12.3027C15.5854 11.0651 16.0224 9.6092 16.0224 8.00766C16.0224 3.56705 12.4537 0 8.01118 0C3.56862 0 0 3.56705 0 8.00766C0 12.4483 3.56862 16.0153 8.01118 16.0153C9.61342 16.0153 11.07 15.5785 12.3081 14.7778C12.4537 14.705 12.6722 14.705 12.7451 14.8506L16.6778 18.7816C16.9691 19.0728 17.4061 19.0728 17.6974 18.7816L18.717 17.7625C19.0812 17.3985 19.0812 16.9617 18.7899 16.6705ZM8.08401 13.1034C5.24368 13.1034 2.98599 10.8467 2.98599 8.00766C2.98599 5.16858 5.24368 2.91188 8.08401 2.91188C10.9243 2.91188 13.182 5.16858 13.182 8.00766C13.182 10.8467 10.9243 13.1034 8.08401 13.1034Z" fill="black"/>
</svg>
