<svg width="15" height="20" viewBox="0 0 15 20" fill="none" xmlns="http://www.w3.org/2000/svg">
<path fill-rule="evenodd" clip-rule="evenodd" d="M0 0.5C0 0.223858 0.223858 0 0.5 0H14.4123C14.6884 0 14.9123 0.223858 14.9123 0.5C14.9123 0.776142 14.6884 1 14.4123 1H0.5C0.223858 1 0 0.776142 0 0.5ZM14.0008 5H1.08858V15.5926H14.0008V5ZM0.0885773 4V16.5926H15.0008V4H0.0885773ZM0.5 19C0.223858 19 0 19.2239 0 19.5C0 19.7761 0.223858 20 0.5 20H14.4123C14.6884 20 14.9123 19.7761 14.9123 19.5C14.9123 19.2239 14.6884 19 14.4123 19H0.5Z" fill="black"/>
</svg>
